Agency_FB-Bold.ufo
<glyph name="exclam" format="2">
  <advance width="214"/>
  <unicode hex="0021"/>
  <outline>
    <contour>
      <point x="168" y="764" type="line"/>
      <point x="152" y="178" type="line"/>
      <point x="62" y="178" type="line"/>
      <point x="46" y="764" type="line"/>
    </contour>
    <contour>
      <point x="163" y="0" type="line"/>
      <point x="50" y="0" type="line"/>
      <point x="50" y="117" type="line"/>
      <point x="163" y="117" type="line"/>
    </contour>
  </outline>
</glyph>
<glyph name="dollar" format="2">
  <advance width="457"/>
  <unicode hex="0024"/>
  <outline>
    <contour>
      <point x="410" y="77" type="line" smooth="yes"/>
      <point x="410" y="31"/>
      <point x="384" y="7"/>
      <point x="344" y="7" type="curve" smooth="yes"/>
      <point x="280" y="7" type="line"/>
      <point x="280" y="-61" type="line"/>
      <point x="173" y="-61" type="line"/>
      <point x="173" y="7" type="line"/>
      <point x="109" y="7" type="line" smooth="yes"/>
      <point x="69" y="7"/>
      <point x="44" y="31"/>
      <point x="44" y="77" type="curve" smooth="yes"/>
      <point x="44" y="252" type="line"/>
      <point x="158" y="252" type="line"/>
      <point x="158" y="99" type="line"/>
      <point x="296" y="99" type="line"/>
      <point x="296" y="248" type="line"/>
      <point x="69" y="463" type="line" smooth="yes"/>
      <point x="50" y="481"/>
      <point x="44" y="495"/>
      <point x="44" y="525" type="curve" smooth="yes"/>
      <point x="44" y="687" type="line" smooth="yes"/>
      <point x="44" y="733"/>
      <point x="69" y="757"/>
      <point x="109" y="757" type="curve" smooth="yes"/>
      <point x="173" y="757" type="line"/>
      <point x="173" y="825" type="line"/>
      <point x="280" y="825" type="line"/>
      <point x="280" y="757" type="line"/>
      <point x="344" y="757" type="line" smooth="yes"/>
      <point x="385" y="757"/>
      <point x="410" y="733"/>
      <point x="410" y="688" type="curve" smooth="yes"/>
      <point x="410" y="523" type="line"/>
      <point x="296" y="523" type="line"/>
      <point x="296" y="663" type="line"/>
      <point x="158" y="663" type="line"/>
      <point x="158" y="529" type="line"/>
      <point x="384" y="316" type="line" smooth="yes"/>
      <point x="403" y="298"/>
      <point x="410" y="283"/>
      <point x="410" y="254" type="curve" smooth="yes"/>
    </contour>
  </outline>
</glyph>
<glyph name="percent" format="2">
  <advance width="656"/>
  <unicode hex="0025"/>
  <outline>
    <contour>
      <point x="287" y="443" type="line" smooth="yes"/>
      <point x="287" y="403"/>
      <point x="268" y="384"/>
      <point x="228" y="384" type="curve" smooth="yes"/>
      <point x="96" y="384" type="line" smooth="yes"/>
      <point x="56" y="384"/>
      <point x="37" y="403"/>
      <point x="37" y="443" type="curve" smooth="yes"/>
      <point x="37" y="705" type="line" smooth="yes"/>
      <point x="37" y="746"/>
      <point x="56" y="764"/>
      <point x="96" y="764" type="curve" smooth="yes"/>
      <point x="228" y="764" type="line" smooth="yes"/>
      <point x="268" y="764"/>
      <point x="287" y="746"/>
      <point x="287" y="705" type="curve" smooth="yes"/>
    </contour>
    <contour>
      <point x="580" y="757" type="line"/>
      <point x="164" y="0" type="line"/>
      <point x="75" y="0" type="line"/>
      <point x="75" y="7" type="line"/>
      <point x="491" y="764" type="line"/>
      <point x="580" y="764" type="line"/>
    </contour>
    <contour>
      <point x="620" y="59" type="line" smooth="yes"/>
      <point x="620" y="19"/>
      <point x="600" y="0"/>
      <point x="561" y="0" type="curve" smooth="yes"/>
      <point x="428" y="0" type="line" smooth="yes"/>
      <point x="388" y="0"/>
      <point x="369" y="19"/>
      <point x="369" y="59" type="curve" smooth="yes"/>
      <point x="369" y="321" type="line" smooth="yes"/>
      <point x="369" y="361"/>
      <point x="388" y="380"/>
      <point x="428" y="380" type="curve" smooth="yes"/>
      <point x="561" y="380" type="line" smooth="yes"/>
      <point x="600" y="380"/>
      <point x="620" y="359"/>
      <point x="620" y="318" type="curve" smooth="yes"/>
    </contour>
    <contour>
      <point x="205" y="455" type="line"/>
      <point x="205" y="693" type="line"/>
      <point x="118" y="693" type="line"/>
      <point x="118" y="455" type="line"/>
    </contour>
    <contour>
      <point x="537" y="71" type="line"/>
      <point x="537" y="309" type="line"/>
      <point x="451" y="309" type="line"/>
      <point x="451" y="71" type="line"/>
    </contour>
  </outline>
</glyph>
<glyph name="parenleft" format="2">
  <advance width="304"/>
  <unicode hex="0028"/>
  <outline>
    <contour>
      <point x="279" y="-98" type="line"/>
      <point x="166" y="-98" type="line"/>
      <point x="93" y="18"/>
      <point x="41" y="146"/>
      <point x="41" y="333" type="curve" smooth="yes"/>
      <point x="41" y="520"/>
      <point x="93" y="648"/>
      <point x="166" y="764" type="curve"/>
      <point x="279" y="764" type="line"/>
      <point x="279" y="759" type="line"/>
      <point x="206" y="632"/>
      <point x="163" y="509"/>
      <point x="163" y="333" type="curve" smooth="yes"/>
      <point x="163" y="157"/>
      <point x="206" y="34"/>
      <point x="279" y="-93" type="curve"/>
    </contour>
  </outline>
</glyph>
<glyph name="parenright" format="2">
  <advance width="304"/>
  <unicode hex="0029"/>
  <outline>
    <contour>
      <point x="264" y="333" type="curve" smooth="yes"/>
      <point x="264" y="146"/>
      <point x="212" y="18"/>
      <point x="139" y="-98" type="curve"/>
      <point x="26" y="-98" type="line"/>
      <point x="26" y="-93" type="line"/>
      <point x="99" y="34"/>
      <point x="142" y="157"/>
      <point x="142" y="333" type="curve" smooth="yes"/>
      <point x="142" y="509"/>
      <point x="99" y="632"/>
      <point x="26" y="759" type="curve"/>
      <point x="26" y="764" type="line"/>
      <point x="139" y="764" type="line"/>
      <point x="212" y="648"/>
      <point x="264" y="520"/>
    </contour>
  </outline>
</glyph>
<glyph name="asterisk" format="2">
  <advance width="458"/>
  <unicode hex="002A"/>
  <outline>
    <contour>
      <point x="421" y="530" type="line"/>
      <point x="368" y="445" type="line"/>
      <point x="269" y="518" type="line"/>
      <point x="278" y="391" type="line"/>
      <point x="179" y="391" type="line"/>
      <point x="190" y="518" type="line"/>
      <point x="90" y="445" type="line"/>
      <point x="38" y="530" type="line"/>
      <point x="156" y="581" type="line"/>
      <point x="38" y="633" type="line"/>
      <point x="90" y="718" type="line"/>
      <point x="190" y="646" type="line"/>
      <point x="179" y="772" type="line"/>
      <point x="278" y="772" type="line"/>
      <point x="269" y="646" type="line"/>
      <point x="368" y="718" type="line"/>
      <point x="421" y="633" type="line"/>
      <point x="303" y="581" type="line"/>
    </contour>
  </outline>
</glyph>
<glyph name="period" format="2">
  <advance width="184"/>
  <unicode hex="002E"/>
  <outline>
    <contour>
      <point x="147" y="0" type="line"/>
      <point x="37" y="0" type="line"/>
      <point x="37" y="118" type="line"/>
      <point x="147" y="118" type="line"/>
    </contour>
  </outline>
</glyph>
<glyph name="slash" format="2">
  <advance width="444"/>
  <unicode hex="002F"/>
  <outline>
    <contour>
      <point x="425" y="757" type="line"/>
      <point x="123" y="0" type="line"/>
      <point x="19" y="0" type="line"/>
      <point x="19" y="7" type="line"/>
      <point x="321" y="764" type="line"/>
      <point x="425" y="764" type="line"/>
    </contour>
  </outline>
</glyph>
<glyph name="zero" format="2">
  <advance width="467"/>
  <unicode hex="0030"/>
  <outline>
    <contour>
      <point x="421" y="70" type="line" smooth="yes"/>
      <point x="421" y="25"/>
      <point x="396" y="0"/>
      <point x="352" y="0" type="curve" smooth="yes"/>
      <point x="114" y="0" type="line" smooth="yes"/>
      <point x="70" y="0"/>
      <point x="46" y="25"/>
      <point x="46" y="70" type="curve" smooth="yes"/>
      <point x="46" y="694" type="line" smooth="yes"/>
      <point x="46" y="739"/>
      <point x="70" y="764"/>
      <point x="115" y="764" type="curve" smooth="yes"/>
      <point x="352" y="764" type="line" smooth="yes"/>
      <point x="396" y="764"/>
      <point x="421" y="739"/>
      <point x="421" y="694" type="curve" smooth="yes"/>
    </contour>
    <contour>
      <point x="309" y="98" type="line"/>
      <point x="309" y="666" type="line"/>
      <point x="158" y="666" type="line"/>
      <point x="158" y="98" type="line"/>
    </contour>
  </outline>
</glyph>
<glyph name="one" format="2">
  <advance width="235"/>
  <unicode hex="0031"/>
  <outline>
    <contour>
      <point x="184" y="0" type="line"/>
      <point x="72" y="0" type="line"/>
      <point x="72" y="539" type="line"/>
      <point x="28" y="539" type="line"/>
      <point x="28" y="554" type="line"/>
      <point x="87" y="764" type="line"/>
      <point x="184" y="764" type="line"/>
    </contour>
  </outline>
</glyph>
<glyph name="two" format="2">
  <advance width="441"/>
  <unicode hex="0032"/>
  <outline>
    <contour>
      <point x="405" y="547" type="line" smooth="yes"/>
      <point x="405" y="512"/>
      <point x="397" y="497"/>
      <point x="380" y="467" type="curve" smooth="yes"/>
      <point x="170" y="100" type="line"/>
      <point x="404" y="100" type="line"/>
      <point x="404" y="0" type="line"/>
      <point x="33" y="0" type="line"/>
      <point x="33" y="71" type="line"/>
      <point x="292" y="526" type="line"/>
      <point x="292" y="667" type="line"/>
      <point x="153" y="667" type="line"/>
      <point x="153" y="525" type="line"/>
      <point x="41" y="525" type="line"/>
      <point x="41" y="695" type="line" smooth="yes"/>
      <point x="41" y="739"/>
      <point x="66" y="764"/>
      <point x="111" y="764" type="curve" smooth="yes"/>
      <point x="335" y="764" type="line" smooth="yes"/>
      <point x="379" y="764"/>
      <point x="405" y="739"/>
      <point x="405" y="695" type="curve" smooth="yes"/>
    </contour>
  </outline>
</glyph>
<glyph name="three" format="2">
  <advance width="460"/>
  <unicode hex="0033"/>
  <outline>
    <contour>
      <point x="417" y="70" type="line" smooth="yes"/>
      <point x="417" y="25"/>
      <point x="393" y="0"/>
      <point x="348" y="0" type="curve" smooth="yes"/>
      <point x="114" y="0" type="line" smooth="yes"/>
      <point x="70" y="0"/>
      <point x="46" y="25"/>
      <point x="46" y="70" type="curve" smooth="yes"/>
      <point x="46" y="246" type="line"/>
      <point x="158" y="246" type="line"/>
      <point x="158" y="98" type="line"/>
      <point x="305" y="98" type="line"/>
      <point x="305" y="290" type="line"/>
      <point x="165" y="386" type="line"/>
      <point x="165" y="410" type="line"/>
      <point x="305" y="505" type="line"/>
      <point x="305" y="666" type="line"/>
      <point x="158" y="666" type="line"/>
      <point x="158" y="527" type="line"/>
      <point x="46" y="527" type="line"/>
      <point x="46" y="694" type="line" smooth="yes"/>
      <point x="46" y="739"/>
      <point x="71" y="764"/>
      <point x="115" y="764" type="curve" smooth="yes"/>
      <point x="348" y="764" type="line" smooth="yes"/>
      <point x="392" y="764"/>
      <point x="417" y="739"/>
      <point x="417" y="694" type="curve" smooth="yes"/>
      <point x="417" y="514" type="line" smooth="yes"/>
      <point x="417" y="479"/>
      <point x="405" y="461"/>
      <point x="379" y="444" type="curve" smooth="yes"/>
      <point x="308" y="398" type="line"/>
      <point x="380" y="353" type="line" smooth="yes"/>
      <point x="406" y="337"/>
      <point x="417" y="319"/>
      <point x="417" y="284" type="curve" smooth="yes"/>
    </contour>
  </outline>
</glyph>
<glyph name="five" format="2">
  <advance width="454"/>
  <unicode hex="0035"/>
  <outline>
    <contour>
      <point x="411" y="70" type="line" smooth="yes"/>
      <point x="411" y="25"/>
      <point x="387" y="0"/>
      <point x="342" y="0" type="curve" smooth="yes"/>
      <point x="113" y="0" type="line" smooth="yes"/>
      <point x="69" y="0"/>
      <point x="45" y="25"/>
      <point x="45" y="70" type="curve" smooth="yes"/>
      <point x="45" y="246" type="line"/>
      <point x="157" y="246" type="line"/>
      <point x="157" y="98" type="line"/>
      <point x="299" y="98" type="line"/>
      <point x="299" y="392" type="line"/>
      <point x="45" y="392" type="line"/>
      <point x="57" y="764" type="line"/>
      <point x="406" y="764" type="line"/>
      <point x="406" y="664" type="line"/>
      <point x="163" y="664" type="line"/>
      <point x="156" y="490" type="line"/>
      <point x="342" y="490" type="line" smooth="yes"/>
      <point x="387" y="490"/>
      <point x="411" y="465"/>
      <point x="411" y="421" type="curve" smooth="yes"/>
    </contour>
  </outline>
</glyph>
<glyph name="six" format="2">
  <advance width="461"/>
  <unicode hex="0036"/>
  <outline>
    <contour>
      <point x="416" y="70" type="line" smooth="yes"/>
      <point x="416" y="25"/>
      <point x="392" y="0"/>
      <point x="347" y="0" type="curve" smooth="yes"/>
      <point x="115" y="0" type="line" smooth="yes"/>
      <point x="70" y="0"/>
      <point x="46" y="25"/>
      <point x="46" y="70" type="curve" smooth="yes"/>
      <point x="46" y="694" type="line" smooth="yes"/>
      <point x="46" y="739"/>
      <point x="70" y="764"/>
      <point x="114" y="764" type="curve" smooth="yes"/>
      <point x="345" y="764" type="line" smooth="yes"/>
      <point x="389" y="764"/>
      <point x="414" y="739"/>
      <point x="414" y="694" type="curve" smooth="yes"/>
      <point x="414" y="532" type="line"/>
      <point x="302" y="532" type="line"/>
      <point x="302" y="666" type="line"/>
      <point x="158" y="666" type="line"/>
      <point x="158" y="436" type="line"/>
      <point x="347" y="436" type="line" smooth="yes"/>
      <point x="392" y="436"/>
      <point x="416" y="411"/>
      <point x="416" y="367" type="curve" smooth="yes"/>
    </contour>
    <contour>
      <point x="304" y="98" type="line"/>
      <point x="304" y="339" type="line"/>
      <point x="158" y="339" type="line"/>
      <point x="158" y="98" type="line"/>
    </contour>
  </outline>
</glyph>
<glyph name="eight" format="2">
  <advance width="469"/>
  <unicode hex="0038"/>
  <outline>
    <contour>
      <point x="423" y="70" type="line" smooth="yes"/>
      <point x="423" y="25"/>
      <point x="398" y="0"/>
      <point x="354" y="0" type="curve" smooth="yes"/>
      <point x="113" y="0" type="line" smooth="yes"/>
      <point x="69" y="0"/>
      <point x="45" y="25"/>
      <point x="45" y="70" type="curve" smooth="yes"/>
      <point x="45" y="292" type="line" smooth="yes"/>
      <point x="45" y="327"/>
      <point x="53" y="344"/>
      <point x="78" y="359" type="curve" smooth="yes"/>
      <point x="141" y="396" type="line"/>
      <point x="79" y="433" type="line" smooth="yes"/>
      <point x="55" y="448"/>
      <point x="46" y="465"/>
      <point x="46" y="497" type="curve" smooth="yes"/>
      <point x="46" y="694" type="line" smooth="yes"/>
      <point x="46" y="739"/>
      <point x="70" y="764"/>
      <point x="115" y="764" type="curve" smooth="yes"/>
      <point x="353" y="764" type="line" smooth="yes"/>
      <point x="397" y="764"/>
      <point x="421" y="739"/>
      <point x="421" y="694" type="curve" smooth="yes"/>
      <point x="421" y="497" type="line" smooth="yes"/>
      <point x="421" y="464"/>
      <point x="412" y="448"/>
      <point x="388" y="433" type="curve" smooth="yes"/>
      <point x="326" y="396" type="line"/>
      <point x="389" y="359" type="line" smooth="yes"/>
      <point x="415" y="344"/>
      <point x="423" y="329"/>
      <point x="423" y="292" type="curve" smooth="yes"/>
    </contour>
    <contour>
      <point x="308" y="485" type="line"/>
      <point x="308" y="668" type="line"/>
      <point x="160" y="668" type="line"/>
      <point x="160" y="485" type="line"/>
      <point x="234" y="441" type="line"/>
    </contour>
    <contour>
      <point x="309" y="96" type="line"/>
      <point x="309" y="308" type="line"/>
      <point x="234" y="351" type="line"/>
      <point x="158" y="308" type="line"/>
      <point x="158" y="96" type="line"/>
    </contour>
  </outline>
</glyph>
<glyph name="colon" format="2">
  <advance width="184"/>
  <unicode hex="003A"/>
  <outline>
    <contour>
      <point x="147" y="310" type="line"/>
      <point x="37" y="310" type="line"/>
      <point x="37" y="429" type="line"/>
      <point x="147" y="429" type="line"/>
    </contour>
    <contour>
      <point x="147" y="0" type="line"/>
      <point x="37" y="0" type="line"/>
      <point x="37" y="118" type="line"/>
      <point x="147" y="118" type="line"/>
    </contour>
  </outline>
</glyph>
<glyph name="semicolon" format="2">
  <advance width="184"/>
  <unicode hex="003B"/>
  <outline>
    <contour>
      <point x="147" y="310" type="line"/>
      <point x="37" y="310" type="line"/>
      <point x="37" y="429" type="line"/>
      <point x="147" y="429" type="line"/>
    </contour>
    <contour>
      <point x="154" y="117" type="line"/>
      <point x="97" y="-79" type="line"/>
      <point x="23" y="-79" type="line"/>
      <point x="37" y="117" type="line"/>
    </contour>
  </outline>
</glyph>
<glyph name="less" format="2">
  <advance width="364"/>
  <unicode hex="003C"/>
  <outline>
    <contour>
      <point x="322" y="99" type="line"/>
      <point x="316" y="99" type="line"/>
      <point x="32" y="301" type="line"/>
      <point x="32" y="359" type="line"/>
      <point x="316" y="561" type="line"/>
      <point x="322" y="561" type="line"/>
      <point x="322" y="443" type="line"/>
      <point x="154" y="330" type="line"/>
      <point x="322" y="217" type="line"/>
    </contour>
  </outline>
</glyph>
<glyph name="equal" format="2">
  <advance width="467"/>
  <unicode hex="003D"/>
  <outline>
    <contour>
      <point x="428" y="375" type="line"/>
      <point x="39" y="375" type="line"/>
      <point x="39" y="469" type="line"/>
      <point x="428" y="469" type="line"/>
    </contour>
    <contour>
      <point x="428" y="182" type="line"/>
      <point x="39" y="182" type="line"/>
      <point x="39" y="275" type="line"/>
      <point x="428" y="275" type="line"/>
    </contour>
  </outline>
</glyph>
<glyph name="at" format="2">
  <advance width="583"/>
  <unicode hex="0040"/>
  <outline>
    <contour>
      <point x="538" y="0" type="line"/>
      <point x="89" y="0" type="line" smooth="yes"/>
      <point x="60" y="0"/>
      <point x="45" y="16"/>
      <point x="45" y="44" type="curve" smooth="yes"/>
      <point x="45" y="720" type="line" smooth="yes"/>
      <point x="45" y="748"/>
      <point x="60" y="764"/>
      <point x="89" y="764" type="curve" smooth="yes"/>
      <point x="494" y="764" type="line" smooth="yes"/>
      <point x="522" y="764"/>
      <point x="538" y="748"/>
      <point x="538" y="720" type="curve" smooth="yes"/>
      <point x="538" y="211" type="line" smooth="yes"/>
      <point x="538" y="183"/>
      <point x="522" y="167"/>
      <point x="494" y="167" type="curve" smooth="yes"/>
      <point x="222" y="167" type="line" smooth="yes"/>
      <point x="194" y="167"/>
      <point x="178" y="183"/>
      <point x="178" y="210" type="curve" smooth="yes"/>
      <point x="178" y="381" type="line" smooth="yes"/>
      <point x="178" y="408"/>
      <point x="194" y="425"/>
      <point x="222" y="425" type="curve" smooth="yes"/>
      <point x="322" y="425" type="line"/>
      <point x="322" y="534" type="line"/>
      <point x="259" y="534" type="line"/>
      <point x="259" y="466" type="line"/>
      <point x="183" y="466" type="line"/>
      <point x="183" y="557" type="line" smooth="yes"/>
      <point x="183" y="585"/>
      <point x="199" y="601"/>
      <point x="226" y="601" type="curve" smooth="yes"/>
      <point x="357" y="601" type="line" smooth="yes"/>
      <point x="385" y="601"/>
      <point x="401" y="585"/>
      <point x="401" y="557" type="curve" smooth="yes"/>
      <point x="401" y="219" type="line"/>
      <point x="486" y="219" type="line"/>
      <point x="486" y="714" type="line"/>
      <point x="97" y="714" type="line"/>
      <point x="97" y="50" type="line"/>
      <point x="538" y="50" type="line"/>
    </contour>
    <contour>
      <point x="322" y="231" type="line"/>
      <point x="322" y="362" type="line"/>
      <point x="257" y="362" type="line"/>
      <point x="257" y="231" type="line"/>
    </contour>
  </outline>
</glyph>
<glyph name="A" format="2">
  <advance width="451"/>
  <unicode hex="0041"/>
  <anchor x="225.5" y="764" name="top"/>
  <anchor x="367" y="0" name="ogonek"/>
  <outline>
    <contour>
      <point x="433" y="0" type="line"/>
      <point x="320" y="0" type="line"/>
      <point x="297" y="145" type="line"/>
      <point x="154" y="145" type="line"/>
      <point x="131" y="0" type="line"/>
      <point x="18" y="0" type="line"/>
      <point x="18" y="2" type="line"/>
      <point x="166" y="765" type="line"/>
      <point x="286" y="765" type="line"/>
      <point x="433" y="2" type="line"/>
    </contour>
    <contour>
      <point x="281" y="243" type="line"/>
      <point x="225" y="588" type="line"/>
      <point x="169" y="243" type="line"/>
    </contour>
  </outline>
</glyph>
<glyph name="B" format="2">
  <advance width="465"/>
  <unicode hex="0042"/>
  <outline>
    <contour>
      <point x="421" y="70" type="line" smooth="yes"/>
      <point x="421" y="25"/>
      <point x="396" y="0"/>
      <point x="351" y="0" type="curve" smooth="yes"/>
      <point x="46" y="0" type="line"/>
      <point x="46" y="764" type="line"/>
      <point x="349" y="764" type="line" smooth="yes"/>
      <point x="393" y="764"/>
      <point x="417" y="739"/>
      <point x="417" y="694" type="curve" smooth="yes"/>
      <point x="417" y="497" type="line" smooth="yes"/>
      <point x="417" y="461"/>
      <point x="407" y="444"/>
      <point x="380" y="428" type="curve" smooth="yes"/>
      <point x="333" y="399" type="line"/>
      <point x="383" y="368" type="line" smooth="yes"/>
      <point x="410" y="351"/>
      <point x="421" y="333"/>
      <point x="421" y="297" type="curve" smooth="yes"/>
    </contour>
    <contour>
      <point x="303" y="483" type="line"/>
      <point x="303" y="668" type="line"/>
      <point x="160" y="668" type="line"/>
      <point x="160" y="444" type="line"/>
      <point x="248" y="444" type="line"/>
    </contour>
    <contour>
      <point x="306" y="96" type="line"/>
      <point x="306" y="314" type="line"/>
      <point x="250" y="351" type="line"/>
      <point x="160" y="351" type="line"/>
      <point x="160" y="96" type="line"/>
    </contour>
  </outline>
</glyph>
<glyph name="C" format="2">
  <advance width="466"/>
  <unicode hex="0043"/>
  <anchor x="233.0" y="764" name="top"/>
  <outline>
    <contour>
      <point x="422" y="70" type="line" smooth="yes"/>
      <point x="422" y="25"/>
      <point x="397" y="0"/>
      <point x="352" y="0" type="curve" smooth="yes"/>
      <point x="114" y="0" type="line" smooth="yes"/>
      <point x="70" y="0"/>
      <point x="46" y="25"/>
      <point x="46" y="70" type="curve" smooth="yes"/>
      <point x="46" y="694" type="line" smooth="yes"/>
      <point x="46" y="739"/>
      <point x="70" y="764"/>
      <point x="114" y="764" type="curve" smooth="yes"/>
      <point x="352" y="764" type="line" smooth="yes"/>
      <point x="397" y="764"/>
      <point x="422" y="739"/>
      <point x="422" y="694" type="curve" smooth="yes"/>
      <point x="422" y="515" type="line"/>
      <point x="308" y="515" type="line"/>
      <point x="308" y="666" type="line"/>
      <point x="160" y="666" type="line"/>
      <point x="160" y="98" type="line"/>
      <point x="308" y="98" type="line"/>
      <point x="308" y="259" type="line"/>
      <point x="422" y="259" type="line"/>
    </contour>
  </outline>
</glyph>
<glyph name="E" format="2">
  <advance width="395"/>
  <unicode hex="0045"/>
  <anchor x="203" y="764" name="top"/>
  <anchor x="263" y="0" name="ogonek"/>
  <outline>
    <contour>
      <point x="363" y="0" type="line"/>
      <point x="46" y="0" type="line"/>
      <point x="46" y="764" type="line"/>
      <point x="360" y="764" type="line"/>
      <point x="360" y="663" type="line"/>
      <point x="160" y="663" type="line"/>
      <point x="160" y="440" type="line"/>
      <point x="332" y="440" type="line"/>
      <point x="332" y="341" type="line"/>
      <point x="160" y="341" type="line"/>
      <point x="160" y="101" type="line"/>
      <point x="363" y="101" type="line"/>
    </contour>
  </outline>
</glyph>
<glyph name="F" format="2">
  <advance width="377"/>
  <unicode hex="0046"/>
  <outline>
    <contour>
      <point x="358" y="663" type="line"/>
      <point x="160" y="663" type="line"/>
      <point x="160" y="437" type="line"/>
      <point x="329" y="437" type="line"/>
      <point x="329" y="338" type="line"/>
      <point x="160" y="338" type="line"/>
      <point x="160" y="0" type="line"/>
      <point x="46" y="0" type="line"/>
      <point x="46" y="764" type="line"/>
      <point x="358" y="764" type="line"/>
    </contour>
  </outline>
</glyph>
<glyph name="G" format="2">
  <advance width="469"/>
  <unicode hex="0047"/>
  <anchor x="234.5" y="764" name="top"/>
  <anchor x="234.5" y="0" name="bottom"/>
  <outline>
    <contour>
      <point x="424" y="70" type="line" smooth="yes"/>
      <point x="424" y="25"/>
      <point x="399" y="0"/>
      <point x="354" y="0" type="curve" smooth="yes"/>
      <point x="114" y="0" type="line" smooth="yes"/>
      <point x="70" y="0"/>
      <point x="46" y="25"/>
      <point x="46" y="70" type="curve" smooth="yes"/>
      <point x="46" y="694" type="line" smooth="yes"/>
      <point x="46" y="739"/>
      <point x="70" y="764"/>
      <point x="115" y="764" type="curve" smooth="yes"/>
      <point x="354" y="764" type="line" smooth="yes"/>
      <point x="399" y="764"/>
      <point x="424" y="739"/>
      <point x="424" y="694" type="curve" smooth="yes"/>
      <point x="424" y="531" type="line"/>
      <point x="309" y="531" type="line"/>
      <point x="309" y="666" type="line"/>
      <point x="160" y="666" type="line"/>
      <point x="160" y="98" type="line"/>
      <point x="309" y="98" type="line"/>
      <point x="309" y="312" type="line"/>
      <point x="224" y="312" type="line"/>
      <point x="224" y="409" type="line"/>
      <point x="424" y="409" type="line"/>
    </contour>
  </outline>
</glyph>
<glyph name="H" format="2">
  <advance width="475"/>
  <unicode hex="0048"/>
  <anchor x="237.5" y="764" name="top"/>
  <outline>
    <contour>
      <point x="430" y="0" type="line"/>
      <point x="315" y="0" type="line"/>
      <point x="315" y="343" type="line"/>
      <point x="160" y="343" type="line"/>
      <point x="160" y="0" type="line"/>
      <point x="46" y="0" type="line"/>
      <point x="46" y="764" type="line"/>
      <point x="160" y="764" type="line"/>
      <point x="160" y="449" type="line"/>
      <point x="315" y="449" type="line"/>
      <point x="315" y="764" type="line"/>
      <point x="430" y="764" type="line"/>
    </contour>
  </outline>
</glyph>
<glyph name="I" format="2">
  <advance width="210"/>
  <unicode hex="0049"/>
  <anchor x="93" y="0" name="ogonek"/>
  <anchor x="105.0" y="764" name="top"/>
  <outline>
    <contour>
      <point x="162" y="0" type="line"/>
      <point x="48" y="0" type="line"/>
      <point x="48" y="764" type="line"/>
      <point x="162" y="764" type="line"/>
    </contour>
  </outline>
</glyph>
<glyph name="K" format="2">
  <advance width="431"/>
  <unicode hex="004B"/>
  <anchor x="232" y="0" name="bottom"/>
  <outline>
    <contour>
      <point x="431" y="0" type="line"/>
      <point x="305" y="0" type="line"/>
      <point x="160" y="341" type="line"/>
      <point x="160" y="0" type="line"/>
      <point x="46" y="0" type="line"/>
      <point x="46" y="764" type="line"/>
      <point x="160" y="764" type="line"/>
      <point x="160" y="441" type="line"/>
      <point x="287" y="764" type="line"/>
      <point x="412" y="764" type="line"/>
      <point x="412" y="759" type="line"/>
      <point x="257" y="396" type="line"/>
      <point x="431" y="5" type="line"/>
    </contour>
  </outline>
</glyph>
<glyph name="L" format="2">
  <advance width="368"/>
  <unicode hex="004C"/>
  <anchor x="199.0" y="0" name="bottom"/>
  <anchor x="105.0" y="764" name="top"/>
  <anchor x="266" y="550" name="caron.vert"/>
  <outline>
    <contour>
      <point x="346" y="0" type="line"/>
      <point x="46" y="0" type="line"/>
      <point x="46" y="764" type="line"/>
      <point x="160" y="764" type="line"/>
      <point x="160" y="102" type="line"/>
      <point x="346" y="102" type="line"/>
    </contour>
  </outline>
</glyph>
<glyph name="M" format="2">
  <advance width="553"/>
  <unicode hex="004D"/>
  <outline>
    <contour>
      <point x="508" y="0" type="line"/>
      <point x="398" y="0" type="line"/>
      <point x="398" y="377" type="line" smooth="yes"/>
      <point x="398" y="406"/>
      <point x="405" y="460"/>
      <point x="405" y="460" type="curve"/>
      <point x="306" y="70" type="line"/>
      <point x="248" y="70" type="line"/>
      <point x="149" y="460" type="line"/>
      <point x="149" y="460"/>
      <point x="156" y="406"/>
      <point x="156" y="377" type="curve" smooth="yes"/>
      <point x="156" y="0" type="line"/>
      <point x="46" y="0" type="line"/>
      <point x="46" y="764" type="line"/>
      <point x="154" y="764" type="line"/>
      <point x="274" y="342" type="line" smooth="yes"/>
      <point x="276" y="335"/>
      <point x="277" y="307"/>
      <point x="277" y="307" type="curve"/>
      <point x="277" y="307"/>
      <point x="278" y="335"/>
      <point x="280" y="342" type="curve" smooth="yes"/>
      <point x="400" y="764" type="line"/>
      <point x="508" y="764" type="line"/>
    </contour>
  </outline>
</glyph>
<glyph name="N" format="2">
  <advance width="479"/>
  <unicode hex="004E"/>
  <anchor x="239.5" y="764" name="top"/>
  <anchor x="247" y="0" name="bottom"/>
  <outline>
    <contour>
      <point x="433" y="0" type="line"/>
      <point x="333" y="0" type="line"/>
      <point x="150" y="481" type="line"/>
      <point x="150" y="481"/>
      <point x="157" y="446"/>
      <point x="157" y="426" type="curve" smooth="yes"/>
      <point x="157" y="0" type="line"/>
      <point x="46" y="0" type="line"/>
      <point x="46" y="764" type="line"/>
      <point x="146" y="764" type="line"/>
      <point x="329" y="293" type="line"/>
      <point x="329" y="293"/>
      <point x="322" y="328"/>
      <point x="322" y="348" type="curve" smooth="yes"/>
      <point x="322" y="764" type="line"/>
      <point x="433" y="764" type="line"/>
    </contour>
  </outline>
</glyph>
<glyph name="O" format="2">
  <advance width="477"/>
  <unicode hex="004F"/>
  <anchor x="238.5" y="764" name="top"/>
  <outline>
    <contour>
      <point x="431" y="70" type="line" smooth="yes"/>
      <point x="431" y="25"/>
      <point x="406" y="0"/>
      <point x="362" y="0" type="curve" smooth="yes"/>
      <point x="114" y="0" type="line" smooth="yes"/>
      <point x="70" y="0"/>
      <point x="46" y="25"/>
      <point x="46" y="70" type="curve" smooth="yes"/>
      <point x="46" y="694" type="line" smooth="yes"/>
      <point x="46" y="739"/>
      <point x="70" y="764"/>
      <point x="114" y="764" type="curve" smooth="yes"/>
      <point x="362" y="764" type="line" smooth="yes"/>
      <point x="406" y="764"/>
      <point x="431" y="739"/>
      <point x="431" y="694" type="curve" smooth="yes"/>
    </contour>
    <contour>
      <point x="317" y="98" type="line"/>
      <point x="317" y="666" type="line"/>
      <point x="160" y="666" type="line"/>
      <point x="160" y="98" type="line"/>
    </contour>
  </outline>
</glyph>
<glyph name="Q" format="2">
  <advance width="492"/>
  <unicode hex="0051"/>
  <outline>
    <contour>
      <point x="483" y="-1" type="line"/>
      <point x="475" y="-1" type="line"/>
      <point x="424" y="38" type="line"/>
      <point x="422" y="33" type="line" smooth="yes"/>
      <point x="414" y="12"/>
      <point x="391" y="0"/>
      <point x="362" y="0" type="curve" smooth="yes"/>
      <point x="114" y="0" type="line" smooth="yes"/>
      <point x="70" y="0"/>
      <point x="46" y="25"/>
      <point x="46" y="70" type="curve" smooth="yes"/>
      <point x="46" y="694" type="line" smooth="yes"/>
      <point x="46" y="739"/>
      <point x="70" y="764"/>
      <point x="115" y="764" type="curve" smooth="yes"/>
      <point x="362" y="764" type="line" smooth="yes"/>
      <point x="407" y="764"/>
      <point x="431" y="739"/>
      <point x="431" y="694" type="curve" smooth="yes"/>
      <point x="431" y="141" type="line"/>
      <point x="483" y="104" type="line"/>
    </contour>
    <contour>
      <point x="317" y="98" type="line"/>
      <point x="317" y="125" type="line"/>
      <point x="250" y="176" type="line"/>
      <point x="250" y="280" type="line"/>
      <point x="257" y="280" type="line"/>
      <point x="317" y="235" type="line"/>
      <point x="317" y="666" type="line"/>
      <point x="160" y="666" type="line"/>
      <point x="160" y="98" type="line"/>
    </contour>
  </outline>
</glyph>
<glyph name="R" format="2">
  <advance width="461"/>
  <unicode hex="0052"/>
  <anchor x="230.5" y="764" name="top"/>
  <anchor x="242" y="0" name="bottom"/>
  <outline>
    <contour>
      <point x="437" y="0" type="line"/>
      <point x="318" y="0" type="line"/>
      <point x="192" y="355" type="line"/>
      <point x="192" y="424" type="line"/>
      <point x="304" y="424" type="line"/>
      <point x="304" y="666" type="line"/>
      <point x="160" y="666" type="line"/>
      <point x="160" y="0" type="line"/>
      <point x="46" y="0" type="line"/>
      <point x="46" y="764" type="line"/>
      <point x="349" y="764" type="line" smooth="yes"/>
      <point x="394" y="764"/>
      <point x="418" y="739"/>
      <point x="418" y="694" type="curve" smooth="yes"/>
      <point x="418" y="416" type="line" smooth="yes"/>
      <point x="418" y="371"/>
      <point x="394" y="346"/>
      <point x="350" y="346" type="curve" smooth="yes"/>
      <point x="311" y="346" type="line"/>
      <point x="437" y="4" type="line"/>
    </contour>
  </outline>
</glyph>
<glyph name="S" format="2">
  <advance width="457"/>
  <unicode hex="0053"/>
  <anchor x="228.5" y="764" name="top"/>
  <anchor x="228.5" y="0" name="bottom"/>
  <outline>
    <contour>
      <point x="412" y="70" type="line" smooth="yes"/>
      <point x="412" y="25"/>
      <point x="387" y="0"/>
      <point x="343" y="0" type="curve" smooth="yes"/>
      <point x="113" y="0" type="line" smooth="yes"/>
      <point x="69" y="0"/>
      <point x="44" y="25"/>
      <point x="44" y="70" type="curve" smooth="yes"/>
      <point x="44" y="252" type="line"/>
      <point x="158" y="252" type="line"/>
      <point x="158" y="96" type="line"/>
      <point x="298" y="96" type="line"/>
      <point x="298" y="246" type="line"/>
      <point x="69" y="463" type="line" smooth="yes"/>
      <point x="50" y="481"/>
      <point x="44" y="495"/>
      <point x="44" y="524" type="curve" smooth="yes"/>
      <point x="44" y="694" type="line" smooth="yes"/>
      <point x="44" y="739"/>
      <point x="69" y="764"/>
      <point x="113" y="764" type="curve" smooth="yes"/>
      <point x="343" y="764" type="line" smooth="yes"/>
      <point x="387" y="764"/>
      <point x="412" y="739"/>
      <point x="412" y="695" type="curve" smooth="yes"/>
      <point x="412" y="524" type="line"/>
      <point x="298" y="524" type="line"/>
      <point x="298" y="668" type="line"/>
      <point x="158" y="668" type="line"/>
      <point x="158" y="530" type="line"/>
      <point x="387" y="314" type="line" smooth="yes"/>
      <point x="406" y="296"/>
      <point x="412" y="281"/>
      <point x="412" y="252" type="curve" smooth="yes"/>
    </contour>
  </outline>
</glyph>
<glyph name="T" format="2">
  <advance width="390"/>
  <unicode hex="0054"/>
  <anchor x="195.0" y="764" name="top"/>
  <anchor x="195.0" y="0" name="bottom"/>
  <outline>
    <contour>
      <point x="378" y="663" type="line"/>
      <point x="252" y="663" type="line"/>
      <point x="252" y="0" type="line"/>
      <point x="138" y="0" type="line"/>
      <point x="138" y="663" type="line"/>
      <point x="13" y="663" type="line"/>
      <point x="13" y="764" type="line"/>
      <point x="378" y="764" type="line"/>
    </contour>
  </outline>
</glyph>
<glyph name="U" format="2">
  <advance width="474"/>
  <unicode hex="0055"/>
  <anchor x="237.0" y="764" name="top"/>
  <outline>
    <contour>
      <point x="428" y="70" type="line" smooth="yes"/>
      <point x="428" y="25"/>
      <point x="403" y="0"/>
      <point x="358" y="0" type="curve" smooth="yes"/>
      <point x="115" y="0" type="line" smooth="yes"/>
      <point x="70" y="0"/>
      <point x="46" y="25"/>
      <point x="46" y="70" type="curve" smooth="yes"/>
      <point x="46" y="764" type="line"/>
      <point x="160" y="764" type="line"/>
      <point x="160" y="98" type="line"/>
      <point x="314" y="98" type="line"/>
      <point x="314" y="764" type="line"/>
      <point x="428" y="764" type="line"/>
    </contour>
  </outline>
</glyph>
<glyph name="W" format="2">
  <advance width="628"/>
  <unicode hex="0057"/>
  <anchor x="314.0" y="764" name="top"/>
  <outline>
    <contour>
      <point x="610" y="764" type="line"/>
      <point x="498" y="-1" type="line"/>
      <point x="386" y="-1" type="line"/>
      <point x="318" y="432" type="line" smooth="yes"/>
      <point x="315" y="448"/>
      <point x="316" y="469"/>
      <point x="314" y="502" type="curve"/>
      <point x="312" y="469"/>
      <point x="313" y="448"/>
      <point x="310" y="432" type="curve" smooth="yes"/>
      <point x="242" y="-1" type="line"/>
      <point x="130" y="-1" type="line"/>
      <point x="18" y="764" type="line"/>
      <point x="134" y="764" type="line"/>
      <point x="193" y="311" type="line" smooth="yes"/>
      <point x="195" y="294"/>
      <point x="195" y="274"/>
      <point x="197" y="241" type="curve"/>
      <point x="199" y="274"/>
      <point x="199" y="294"/>
      <point x="201" y="311" type="curve" smooth="yes"/>
      <point x="267" y="764" type="line"/>
      <point x="361" y="764" type="line"/>
      <point x="427" y="311" type="line" smooth="yes"/>
      <point x="430" y="293"/>
      <point x="429" y="274"/>
      <point x="431" y="241" type="curve"/>
      <point x="433" y="274"/>
      <point x="433" y="293"/>
      <point x="435" y="311" type="curve" smooth="yes"/>
      <point x="494" y="764" type="line"/>
    </contour>
  </outline>
</glyph>
<glyph name="Y" format="2">
  <advance width="443"/>
  <unicode hex="0059"/>
  <anchor x="221.5" y="764" name="top"/>
  <outline>
    <contour>
      <point x="430" y="760" type="line"/>
      <point x="279" y="281" type="line"/>
      <point x="279" y="0" type="line"/>
      <point x="164" y="0" type="line"/>
      <point x="164" y="281" type="line"/>
      <point x="13" y="760" type="line"/>
      <point x="13" y="764" type="line"/>
      <point x="131" y="764" type="line"/>
      <point x="222" y="432" type="line"/>
      <point x="313" y="764" type="line"/>
      <point x="430" y="764" type="line"/>
    </contour>
  </outline>
</glyph>
<glyph name="Z" format="2">
  <advance width="390"/>
  <unicode hex="005A"/>
  <anchor x="195.0" y="764" name="top"/>
  <outline>
    <contour>
      <point x="370" y="0" type="line"/>
      <point x="19" y="0" type="line"/>
      <point x="19" y="61" type="line"/>
      <point x="233" y="661" type="line"/>
      <point x="36" y="661" type="line"/>
      <point x="36" y="764" type="line"/>
      <point x="369" y="764" type="line"/>
      <point x="369" y="698" type="line"/>
      <point x="156" y="103" type="line"/>
      <point x="370" y="103" type="line"/>
    </contour>
  </outline>
</glyph>
<glyph name="bracketright" format="2">
  <advance width="294"/>
  <unicode hex="005D"/>
  <outline>
    <contour>
      <point x="249" y="-54" type="line" smooth="yes"/>
      <point x="249" y="-98"/>
      <point x="225" y="-121"/>
      <point x="182" y="-121" type="curve" smooth="yes"/>
      <point x="35" y="-121" type="line"/>
      <point x="35" y="-19" type="line"/>
      <point x="137" y="-19" type="line"/>
      <point x="137" y="662" type="line"/>
      <point x="35" y="662" type="line"/>
      <point x="35" y="764" type="line"/>
      <point x="182" y="764" type="line" smooth="yes"/>
      <point x="224" y="764"/>
      <point x="249" y="741"/>
      <point x="249" y="698" type="curve" smooth="yes"/>
    </contour>
  </outline>
</glyph>
<glyph name="underscore" format="2">
  <advance width="395"/>
  <unicode hex="005F"/>
  <outline>
    <contour>
      <point x="396" y="-200" type="line"/>
      <point x="0" y="-200" type="line"/>
      <point x="0" y="-115" type="line"/>
      <point x="396" y="-115" type="line"/>
    </contour>
  </outline>
</glyph>
<glyph name="grave" format="2">
  <advance width="408"/>
  <unicode hex="0060"/>
  <outline>
    <contour>
      <point x="337" y="526" type="line"/>
      <point x="255" y="526" type="line"/>
      <point x="113" y="655" type="line"/>
      <point x="113" y="659" type="line"/>
      <point x="252" y="659" type="line"/>
      <point x="337" y="530" type="line"/>
    </contour>
  </outline>
</glyph>
<glyph name="a" format="2">
  <advance width="398"/>
  <unicode hex="0061"/>
  <anchor x="199.0" y="493" name="top"/>
  <anchor x="289" y="0" name="ogonek"/>
  <outline>
    <contour>
      <point x="358" y="0" type="line"/>
      <point x="251" y="0" type="line"/>
      <point x="251" y="17" type="line"/>
      <point x="133" y="2" type="line" smooth="yes"/>
      <point x="119" y="0"/>
      <point x="109" y="-2"/>
      <point x="99" y="-2" type="curve" smooth="yes"/>
      <point x="58" y="-2"/>
      <point x="38" y="18"/>
      <point x="38" y="58" type="curve" smooth="yes"/>
      <point x="38" y="236" type="line" smooth="yes"/>
      <point x="38" y="278"/>
      <point x="58" y="297"/>
      <point x="101" y="297" type="curve" smooth="yes"/>
      <point x="252" y="297" type="line"/>
      <point x="252" y="410" type="line"/>
      <point x="145" y="410" type="line"/>
      <point x="145" y="340" type="line"/>
      <point x="44" y="340" type="line"/>
      <point x="44" y="432" type="line" smooth="yes"/>
      <point x="44" y="473"/>
      <point x="64" y="493"/>
      <point x="107" y="493" type="curve" smooth="yes"/>
      <point x="296" y="493" type="line" smooth="yes"/>
      <point x="338" y="493"/>
      <point x="358" y="473"/>
      <point x="358" y="432" type="curve" smooth="yes"/>
    </contour>
    <contour>
      <point x="252" y="89" type="line"/>
      <point x="252" y="221" type="line"/>
      <point x="145" y="221" type="line"/>
      <point x="145" y="85" type="line"/>
    </contour>
  </outline>
</glyph>
<glyph name="c" format="2">
  <advance width="399"/>
  <unicode hex="0063"/>
  <anchor x="199.5" y="493" name="top"/>
  <outline>
    <contour>
      <point x="359" y="61" type="line" smooth="yes"/>
      <point x="359" y="20"/>
      <point x="339" y="0"/>
      <point x="297" y="0" type="curve" smooth="yes"/>
      <point x="103" y="0" type="line" smooth="yes"/>
      <point x="60" y="0"/>
      <point x="40" y="20"/>
      <point x="40" y="61" type="curve" smooth="yes"/>
      <point x="40" y="432" type="line" smooth="yes"/>
      <point x="40" y="473"/>
      <point x="60" y="493"/>
      <point x="103" y="493" type="curve" smooth="yes"/>
      <point x="297" y="493" type="line" smooth="yes"/>
      <point x="339" y="493"/>
      <point x="359" y="473"/>
      <point x="359" y="432" type="curve" smooth="yes"/>
      <point x="359" y="315" type="line"/>
      <point x="250" y="315" type="line"/>
      <point x="250" y="400" type="line"/>
      <point x="150" y="400" type="line"/>
      <point x="150" y="93" type="line"/>
      <point x="250" y="93" type="line"/>
      <point x="250" y="187" type="line"/>
      <point x="359" y="187" type="line"/>
    </contour>
  </outline>
</glyph>
<glyph name="d" format="2">
  <advance width="408"/>
  <unicode hex="0064"/>
  <anchor x="457" y="540" name="caron.vert"/>
  <outline>
    <contour>
      <point x="367" y="0" type="line"/>
      <point x="256" y="0" type="line"/>
      <point x="256" y="17" type="line"/>
      <point x="171" y="2" type="line" smooth="yes"/>
      <point x="158" y="0"/>
      <point x="141" y="-3"/>
      <point x="129" y="-3" type="curve" smooth="yes"/>
      <point x="73" y="-3"/>
      <point x="39" y="32"/>
      <point x="39" y="89" type="curve" smooth="yes"/>
      <point x="39" y="394" type="line" smooth="yes"/>
      <point x="39" y="454"/>
      <point x="77" y="493"/>
      <point x="142" y="493" type="curve" smooth="yes"/>
      <point x="256" y="493" type="line"/>
      <point x="256" y="764" type="line"/>
      <point x="367" y="764" type="line"/>
    </contour>
    <contour>
      <point x="256" y="96" type="line"/>
      <point x="256" y="400" type="line"/>
      <point x="187" y="400" type="line" smooth="yes"/>
      <point x="161" y="400"/>
      <point x="150" y="388"/>
      <point x="150" y="363" type="curve" smooth="yes"/>
      <point x="150" y="127" type="line" smooth="yes"/>
      <point x="150" y="104"/>
      <point x="161" y="91"/>
      <point x="185" y="91" type="curve" smooth="yes"/>
      <point x="190" y="91"/>
      <point x="200" y="92"/>
      <point x="206" y="92" type="curve" smooth="yes"/>
    </contour>
  </outline>
</glyph>
<glyph name="e" format="2">
  <advance width="400"/>
  <unicode hex="0065"/>
  <anchor x="200.0" y="493" name="top"/>
  <outline>
    <contour>
      <point x="359" y="61" type="line" smooth="yes"/>
      <point x="359" y="20"/>
      <point x="338" y="0"/>
      <point x="296" y="0" type="curve" smooth="yes"/>
      <point x="103" y="0" type="line" smooth="yes"/>
      <point x="60" y="0"/>
      <point x="40" y="20"/>
      <point x="40" y="61" type="curve" smooth="yes"/>
      <point x="40" y="432" type="line" smooth="yes"/>
      <point x="40" y="473"/>
      <point x="60" y="493"/>
      <point x="103" y="493" type="curve" smooth="yes"/>
      <point x="296" y="493" type="line" smooth="yes"/>
      <point x="338" y="493"/>
      <point x="359" y="473"/>
      <point x="359" y="432" type="curve" smooth="yes"/>
      <point x="359" y="251" type="line"/>
      <point x="328" y="220" type="line"/>
      <point x="147" y="220" type="line"/>
      <point x="147" y="82" type="line"/>
      <point x="252" y="82" type="line"/>
      <point x="252" y="164" type="line"/>
      <point x="359" y="164" type="line"/>
    </contour>
    <contour>
      <point x="252" y="293" type="line"/>
      <point x="252" y="411" type="line"/>
      <point x="147" y="411" type="line"/>
      <point x="147" y="293" type="line"/>
    </contour>
  </outline>
</glyph>
<glyph name="f" format="2">
  <advance width="258"/>
  <unicode hex="0066"/>
  <outline>
    <contour>
      <point x="257" y="667" type="line"/>
      <point x="175" y="667" type="line"/>
      <point x="175" y="493" type="line"/>
      <point x="246" y="493" type="line"/>
      <point x="246" y="398" type="line"/>
      <point x="175" y="398" type="line"/>
      <point x="175" y="0" type="line"/>
      <point x="64" y="0" type="line"/>
      <point x="64" y="398" type="line"/>
      <point x="13" y="398" type="line"/>
      <point x="13" y="493" type="line"/>
      <point x="64" y="493" type="line"/>
      <point x="64" y="703" type="line" smooth="yes"/>
      <point x="64" y="744"/>
      <point x="84" y="764"/>
      <point x="126" y="764" type="curve" smooth="yes"/>
      <point x="257" y="764" type="line"/>
    </contour>
  </outline>
</glyph>
<glyph name="g" format="2">
  <advance width="408"/>
  <unicode hex="0067"/>
  <anchor x="204.0" y="493" name="top"/>
  <outline>
    <contour>
      <point x="367" y="-119" type="line" smooth="yes"/>
      <point x="367" y="-160"/>
      <point x="347" y="-180"/>
      <point x="304" y="-180" type="curve" smooth="yes"/>
      <point x="110" y="-180" type="line" smooth="yes"/>
      <point x="67" y="-180"/>
      <point x="47" y="-160"/>
      <point x="47" y="-119" type="curve" smooth="yes"/>
      <point x="47" y="-40" type="line"/>
      <point x="155" y="-40" type="line"/>
      <point x="155" y="-99" type="line"/>
      <point x="256" y="-99" type="line"/>
      <point x="256" y="3" type="line"/>
      <point x="141" y="3" type="line" smooth="yes"/>
      <point x="77" y="3"/>
      <point x="39" y="42"/>
      <point x="39" y="102" type="curve" smooth="yes"/>
      <point x="39" y="404" type="line" smooth="yes"/>
      <point x="39" y="461"/>
      <point x="73" y="495"/>
      <point x="129" y="495" type="curve" smooth="yes"/>
      <point x="142" y="495"/>
      <point x="158" y="493"/>
      <point x="171" y="491" type="curve" smooth="yes"/>
      <point x="256" y="475" type="line"/>
      <point x="256" y="493" type="line"/>
      <point x="367" y="493" type="line"/>
    </contour>
    <contour>
      <point x="256" y="93" type="line"/>
      <point x="256" y="396" type="line"/>
      <point x="209" y="401" type="line" smooth="yes"/>
      <point x="203" y="402"/>
      <point x="192" y="402"/>
      <point x="186" y="402" type="curve" smooth="yes"/>
      <point x="161" y="402"/>
      <point x="150" y="389"/>
      <point x="150" y="366" type="curve" smooth="yes"/>
      <point x="150" y="130" type="line" smooth="yes"/>
      <point x="150" y="105"/>
      <point x="161" y="93"/>
      <point x="187" y="93" type="curve" smooth="yes"/>
    </contour>
  </outline>
</glyph>
<glyph name="h" format="2">
  <advance width="409"/>
  <unicode hex="0068"/>
  <anchor x="95" y="764" name="top"/>
  <outline>
    <contour>
      <point x="369" y="0" type="line"/>
      <point x="257" y="0" type="line"/>
      <point x="257" y="400" type="line"/>
      <point x="152" y="398" type="line"/>
      <point x="152" y="0" type="line"/>
      <point x="40" y="0" type="line"/>
      <point x="40" y="764" type="line"/>
      <point x="152" y="764" type="line"/>
      <point x="152" y="475" type="line"/>
      <point x="272" y="491" type="line"/>
      <point x="284" y="494"/>
      <point x="297" y="495"/>
      <point x="308" y="495" type="curve" smooth="yes"/>
      <point x="348" y="495"/>
      <point x="369" y="474"/>
      <point x="369" y="435" type="curve" smooth="yes"/>
    </contour>
  </outline>
</glyph>
<glyph name="i" format="2">
  <advance width="196"/>
  <unicode hex="0069"/>
  <anchor x="85" y="0" name="ogonek"/>
  <outline>
    <contour>
      <point x="154" y="564" type="line"/>
      <point x="42" y="564" type="line"/>
      <point x="42" y="679" type="line"/>
      <point x="154" y="679" type="line"/>
    </contour>
    <contour>
      <point x="153" y="0" type="line"/>
      <point x="43" y="0" type="line"/>
      <point x="43" y="493" type="line"/>
      <point x="153" y="493" type="line"/>
    </contour>
  </outline>
</glyph>
<glyph name="j" format="2">
  <advance width="196"/>
  <unicode hex="006A"/>
  <outline>
    <contour>
      <point x="154" y="564" type="line"/>
      <point x="42" y="564" type="line"/>
      <point x="42" y="679" type="line"/>
      <point x="154" y="679" type="line"/>
    </contour>
    <contour>
      <point x="153" y="-119" type="line" smooth="yes"/>
      <point x="153" y="-160"/>
      <point x="134" y="-180"/>
      <point x="91" y="-180" type="curve" smooth="yes"/>
      <point x="-28" y="-180" type="line"/>
      <point x="-28" y="-87" type="line"/>
      <point x="43" y="-87" type="line"/>
      <point x="43" y="493" type="line"/>
      <point x="153" y="493" type="line"/>
    </contour>
  </outline>
</glyph>
<glyph name="l" format="2">
  <advance width="196"/>
  <unicode hex="006C"/>
  <anchor x="243" y="540" name="caron.vert"/>
  <anchor x="98.0" y="764" name="top"/>
  <anchor x="98.0" y="0" name="bottom"/>
  <outline>
    <contour>
      <point x="153" y="0" type="line"/>
      <point x="43" y="0" type="line"/>
      <point x="43" y="764" type="line"/>
      <point x="153" y="764" type="line"/>
    </contour>
  </outline>
</glyph>
<glyph name="m" format="2">
  <advance width="624"/>
  <unicode hex="006D"/>
  <outline>
    <contour>
      <point x="584" y="0" type="line"/>
      <point x="473" y="0" type="line"/>
      <point x="473" y="400" type="line"/>
      <point x="368" y="398" type="line"/>
      <point x="368" y="0" type="line"/>
      <point x="257" y="0" type="line"/>
      <point x="257" y="400" type="line"/>
      <point x="152" y="398" type="line"/>
      <point x="152" y="0" type="line"/>
      <point x="40" y="0" type="line"/>
      <point x="40" y="493" type="line"/>
      <point x="152" y="493" type="line"/>
      <point x="152" y="475" type="line"/>
      <point x="269" y="491" type="line" smooth="yes"/>
      <point x="282" y="493"/>
      <point x="298" y="495"/>
      <point x="308" y="495" type="curve" smooth="yes"/>
      <point x="332" y="495"/>
      <point x="348" y="486"/>
      <point x="355" y="478" type="curve"/>
      <point x="358" y="473" type="line"/>
      <point x="487" y="491" type="line"/>
      <point x="499" y="494"/>
      <point x="512" y="495"/>
      <point x="523" y="495" type="curve" smooth="yes"/>
      <point x="564" y="495"/>
      <point x="584" y="474"/>
      <point x="584" y="435" type="curve" smooth="yes"/>
    </contour>
  </outline>
</glyph>
<glyph name="n" format="2">
  <advance width="409"/>
  <unicode hex="006E"/>
  <anchor x="204.5" y="493" name="top"/>
  <anchor x="204.5" y="0" name="bottom"/>
  <outline>
    <contour>
      <point x="369" y="0" type="line"/>
      <point x="257" y="0" type="line"/>
      <point x="257" y="400" type="line"/>
      <point x="152" y="398" type="line"/>
      <point x="152" y="0" type="line"/>
      <point x="40" y="0" type="line"/>
      <point x="40" y="493" type="line"/>
      <point x="152" y="493" type="line"/>
      <point x="152" y="475" type="line"/>
      <point x="270" y="491" type="line" smooth="yes"/>
      <point x="283" y="493"/>
      <point x="297" y="495"/>
      <point x="308" y="495" type="curve" smooth="yes"/>
      <point x="348" y="495"/>
      <point x="369" y="474"/>
      <point x="369" y="435" type="curve" smooth="yes"/>
    </contour>
  </outline>
</glyph>
<glyph name="o" format="2">
  <advance width="406"/>
  <unicode hex="006F"/>
  <anchor x="203.0" y="493" name="top"/>
  <outline>
    <contour>
      <point x="365" y="61" type="line" smooth="yes"/>
      <point x="365" y="20"/>
      <point x="345" y="0"/>
      <point x="303" y="0" type="curve" smooth="yes"/>
      <point x="103" y="0" type="line" smooth="yes"/>
      <point x="60" y="0"/>
      <point x="40" y="20"/>
      <point x="40" y="61" type="curve" smooth="yes"/>
      <point x="40" y="432" type="line" smooth="yes"/>
      <point x="40" y="473"/>
      <point x="60" y="493"/>
      <point x="103" y="493" type="curve" smooth="yes"/>
      <point x="303" y="493" type="line" smooth="yes"/>
      <point x="345" y="493"/>
      <point x="365" y="473"/>
      <point x="365" y="432" type="curve" smooth="yes"/>
    </contour>
    <contour>
      <point x="256" y="93" type="line"/>
      <point x="256" y="400" type="line"/>
      <point x="150" y="400" type="line"/>
      <point x="150" y="93" type="line"/>
    </contour>
  </outline>
</glyph>
<glyph name="q" format="2">
  <advance width="408"/>
  <unicode hex="0071"/>
  <outline>
    <contour>
      <point x="367" y="-180" type="line"/>
      <point x="256" y="-180" type="line"/>
      <point x="256" y="0" type="line"/>
      <point x="141" y="0" type="line" smooth="yes"/>
      <point x="77" y="0"/>
      <point x="39" y="39"/>
      <point x="39" y="99" type="curve" smooth="yes"/>
      <point x="39" y="404" type="line" smooth="yes"/>
      <point x="39" y="461"/>
      <point x="73" y="495"/>
      <point x="129" y="495" type="curve" smooth="yes"/>
      <point x="141" y="495"/>
      <point x="157" y="494"/>
      <point x="171" y="491" type="curve" smooth="yes"/>
      <point x="256" y="475" type="line"/>
      <point x="256" y="493" type="line"/>
      <point x="367" y="493" type="line"/>
    </contour>
    <contour>
      <point x="256" y="93" type="line"/>
      <point x="256" y="396" type="line"/>
      <point x="205" y="401" type="line"/>
      <point x="200" y="402"/>
      <point x="190" y="402"/>
      <point x="185" y="402" type="curve" smooth="yes"/>
      <point x="162" y="402"/>
      <point x="150" y="389"/>
      <point x="150" y="366" type="curve" smooth="yes"/>
      <point x="150" y="130" type="line" smooth="yes"/>
      <point x="150" y="105"/>
      <point x="161" y="93"/>
      <point x="186" y="93" type="curve" smooth="yes"/>
    </contour>
  </outline>
</glyph>
<glyph name="r" format="2">
  <advance width="374"/>
  <unicode hex="0072"/>
  <anchor x="199.0" y="493" name="top"/>
  <anchor x="96.0" y="0" name="bottom"/>
  <outline>
    <contour>
      <point x="351" y="287" type="line"/>
      <point x="240" y="287" type="line"/>
      <point x="240" y="400" type="line"/>
      <point x="152" y="398" type="line"/>
      <point x="152" y="0" type="line"/>
      <point x="40" y="0" type="line"/>
      <point x="40" y="493" type="line"/>
      <point x="152" y="493" type="line"/>
      <point x="152" y="475" type="line"/>
      <point x="254" y="491" type="line"/>
      <point x="266" y="494"/>
      <point x="280" y="495"/>
      <point x="290" y="495" type="curve" smooth="yes"/>
      <point x="331" y="495"/>
      <point x="351" y="474"/>
      <point x="351" y="435" type="curve" smooth="yes"/>
    </contour>
  </outline>
</glyph>
<glyph name="s" format="2">
  <advance width="388"/>
  <unicode hex="0073"/>
  <anchor x="194.0" y="0" name="bottom"/>
  <anchor x="194.0" y="493" name="top"/>
  <outline>
    <contour>
      <point x="350" y="61" type="line" smooth="yes"/>
      <point x="350" y="20"/>
      <point x="330" y="0"/>
      <point x="288" y="0" type="curve" smooth="yes"/>
      <point x="100" y="0" type="line" smooth="yes"/>
      <point x="58" y="0"/>
      <point x="38" y="20"/>
      <point x="38" y="61" type="curve" smooth="yes"/>
      <point x="38" y="167" type="line"/>
      <point x="145" y="167" type="line"/>
      <point x="145" y="84" type="line"/>
      <point x="243" y="84" type="line"/>
      <point x="243" y="162" type="line"/>
      <point x="72" y="263" type="line" smooth="yes"/>
      <point x="50" y="276"/>
      <point x="38" y="289"/>
      <point x="38" y="317" type="curve" smooth="yes"/>
      <point x="38" y="432" type="line" smooth="yes"/>
      <point x="38" y="473"/>
      <point x="58" y="493"/>
      <point x="101" y="493" type="curve" smooth="yes"/>
      <point x="287" y="493" type="line" smooth="yes"/>
      <point x="329" y="493"/>
      <point x="349" y="473"/>
      <point x="349" y="432" type="curve" smooth="yes"/>
      <point x="349" y="333" type="line"/>
      <point x="243" y="333" type="line"/>
      <point x="243" y="409" type="line"/>
      <point x="145" y="409" type="line"/>
      <point x="145" y="338" type="line"/>
      <point x="316" y="238" type="line" smooth="yes"/>
      <point x="337" y="226"/>
      <point x="350" y="212"/>
      <point x="350" y="183" type="curve" smooth="yes"/>
    </contour>
  </outline>
</glyph>
<glyph name="t" format="2">
  <advance width="275"/>
  <unicode hex="0074"/>
  <anchor x="168" y="0" name="bottom"/>
  <anchor x="265" y="559" name="caron.vert"/>
  <outline>
    <contour>
      <point x="253" y="0" type="line"/>
      <point x="129" y="0" type="line" smooth="yes"/>
      <point x="87" y="0"/>
      <point x="67" y="20"/>
      <point x="67" y="61" type="curve" smooth="yes"/>
      <point x="67" y="398" type="line"/>
      <point x="14" y="398" type="line"/>
      <point x="14" y="493" type="line"/>
      <point x="67" y="493" type="line"/>
      <point x="67" y="627" type="line"/>
      <point x="178" y="627" type="line"/>
      <point x="178" y="493" type="line"/>
      <point x="250" y="493" type="line"/>
      <point x="250" y="398" type="line"/>
      <point x="178" y="398" type="line"/>
      <point x="178" y="95" type="line"/>
      <point x="253" y="95" type="line"/>
    </contour>
  </outline>
</glyph>
<glyph name="u" format="2">
  <advance width="409"/>
  <unicode hex="0075"/>
  <anchor x="204.5" y="493" name="top"/>
  <anchor x="299" y="0" name="ogonek"/>
  <outline>
    <contour>
      <point x="368" y="0" type="line"/>
      <point x="257" y="0" type="line"/>
      <point x="257" y="17" type="line"/>
      <point x="139" y="1" type="line" smooth="yes"/>
      <point x="126" y="-1"/>
      <point x="112" y="-3"/>
      <point x="101" y="-3" type="curve" smooth="yes"/>
      <point x="60" y="-3"/>
      <point x="40" y="18"/>
      <point x="40" y="58" type="curve" smooth="yes"/>
      <point x="40" y="493" type="line"/>
      <point x="151" y="493" type="line"/>
      <point x="151" y="93" type="line"/>
      <point x="257" y="95" type="line"/>
      <point x="257" y="493" type="line"/>
      <point x="368" y="493" type="line"/>
    </contour>
  </outline>
</glyph>
<glyph name="w" format="2">
  <advance width="543"/>
  <unicode hex="0077"/>
  <anchor x="271.5" y="493" name="top"/>
  <outline>
    <contour>
      <point x="528" y="493" type="line"/>
      <point x="422" y="-1" type="line"/>
      <point x="324" y="-1" type="line"/>
      <point x="271" y="272" type="line"/>
      <point x="218" y="-1" type="line"/>
      <point x="121" y="-1" type="line"/>
      <point x="15" y="493" type="line"/>
      <point x="122" y="493" type="line"/>
      <point x="176" y="178" type="line"/>
      <point x="229" y="493" type="line"/>
      <point x="314" y="493" type="line"/>
      <point x="367" y="178" type="line"/>
      <point x="421" y="493" type="line"/>
    </contour>
  </outline>
</glyph>
<glyph name="x" format="2">
  <advance width="380"/>
  <unicode hex="0078"/>
  <outline>
    <contour>
      <point x="370" y="0" type="line"/>
      <point x="249" y="0" type="line"/>
      <point x="190" y="155" type="line"/>
      <point x="129" y="0" type="line"/>
      <point x="10" y="0" type="line"/>
      <point x="10" y="2" type="line"/>
      <point x="129" y="254" type="line"/>
      <point x="21" y="491" type="line"/>
      <point x="21" y="493" type="line"/>
      <point x="136" y="493" type="line"/>
      <point x="190" y="350" type="line"/>
      <point x="246" y="493" type="line"/>
      <point x="359" y="493" type="line"/>
      <point x="359" y="491" type="line"/>
      <point x="251" y="255" type="line"/>
      <point x="370" y="2" type="line"/>
    </contour>
  </outline>
</glyph>
<glyph name="y" format="2">
  <advance width="389"/>
  <unicode hex="0079"/>
  <anchor x="194.5" y="493" name="top"/>
  <outline>
    <contour>
      <point x="374" y="493" type="line"/>
      <point x="203" y="-180" type="line"/>
      <point x="89" y="-180" type="line"/>
      <point x="140" y="4" type="line"/>
      <point x="15" y="493" type="line"/>
      <point x="130" y="493" type="line"/>
      <point x="195" y="169" type="line"/>
      <point x="260" y="493" type="line"/>
    </contour>
  </outline>
</glyph>
<glyph name="z" format="2">
  <advance width="347"/>
  <unicode hex="007A"/>
  <anchor x="173.5" y="493" name="top"/>
  <outline>
    <contour>
      <point x="319" y="0" type="line"/>
      <point x="22" y="0" type="line"/>
      <point x="22" y="66" type="line"/>
      <point x="186" y="402" type="line"/>
      <point x="35" y="402" type="line"/>
      <point x="35" y="493" type="line"/>
      <point x="319" y="493" type="line"/>
      <point x="319" y="427" type="line"/>
      <point x="154" y="91" type="line"/>
      <point x="319" y="91" type="line"/>
    </contour>
  </outline>
</glyph>
<glyph name="braceright" format="2">
  <advance width="371"/>
  <unicode hex="007D"/>
  <outline>
    <contour>
      <point x="345" y="328" type="line"/>
      <point x="249" y="234" type="line"/>
      <point x="249" y="0" type="line" smooth="yes"/>
      <point x="249" y="-76"/>
      <point x="208" y="-121"/>
      <point x="132" y="-121" type="curve" smooth="yes"/>
      <point x="35" y="-121" type="line"/>
      <point x="35" y="-20" type="line"/>
      <point x="95" y="-20" type="line" smooth="yes"/>
      <point x="121" y="-20"/>
      <point x="137" y="-5"/>
      <point x="137" y="21" type="curve" smooth="yes"/>
      <point x="137" y="223" type="line" smooth="yes"/>
      <point x="137" y="260"/>
      <point x="141" y="270"/>
      <point x="167" y="292" type="curve" smooth="yes"/>
      <point x="220" y="337" type="line"/>
      <point x="167" y="381" type="line" smooth="yes"/>
      <point x="140" y="404"/>
      <point x="137" y="414"/>
      <point x="137" y="451" type="curve" smooth="yes"/>
      <point x="137" y="624" type="line" smooth="yes"/>
      <point x="137" y="649"/>
      <point x="122" y="663"/>
      <point x="97" y="663" type="curve" smooth="yes"/>
      <point x="35" y="663" type="line"/>
      <point x="35" y="764" type="line"/>
      <point x="132" y="764" type="line" smooth="yes"/>
      <point x="208" y="764"/>
      <point x="249" y="719"/>
      <point x="249" y="643" type="curve" smooth="yes"/>
      <point x="249" y="440" type="line"/>
      <point x="345" y="346" type="line"/>
    </contour>
  </outline>
</glyph>
<glyph name="cent" format="2">
  <advance width="399"/>
  <unicode hex="00A2"/>
  <outline>
    <contour>
      <point x="359" y="201" type="line" smooth="yes"/>
      <point x="359" y="160"/>
      <point x="339" y="140"/>
      <point x="297" y="140" type="curve" smooth="yes"/>
      <point x="248" y="140" type="line"/>
      <point x="248" y="0" type="line"/>
      <point x="152" y="0" type="line"/>
      <point x="152" y="140" type="line"/>
      <point x="103" y="140" type="line" smooth="yes"/>
      <point x="60" y="140"/>
      <point x="40" y="160"/>
      <point x="40" y="201" type="curve" smooth="yes"/>
      <point x="40" y="566" type="line" smooth="yes"/>
      <point x="40" y="607"/>
      <point x="60" y="627"/>
      <point x="103" y="627" type="curve" smooth="yes"/>
      <point x="152" y="627" type="line"/>
      <point x="152" y="764" type="line"/>
      <point x="248" y="764" type="line"/>
      <point x="248" y="627" type="line"/>
      <point x="297" y="627" type="line" smooth="yes"/>
      <point x="339" y="627"/>
      <point x="359" y="607"/>
      <point x="359" y="566" type="curve" smooth="yes"/>
      <point x="359" y="449" type="line"/>
      <point x="250" y="449" type="line"/>
      <point x="250" y="535" type="line"/>
      <point x="150" y="535" type="line"/>
      <point x="150" y="232" type="line"/>
      <point x="250" y="232" type="line"/>
      <point x="250" y="327" type="line"/>
      <point x="359" y="327" type="line"/>
    </contour>
  </outline>
</glyph>
<glyph name="section" format="2">
  <advance width="446"/>
  <unicode hex="00A7"/>
  <outline>
    <contour>
      <point x="403" y="61" type="line" smooth="yes"/>
      <point x="403" y="22"/>
      <point x="381" y="0"/>
      <point x="341" y="0" type="curve" smooth="yes"/>
      <point x="105" y="0" type="line" smooth="yes"/>
      <point x="66" y="0"/>
      <point x="43" y="22"/>
      <point x="43" y="61" type="curve" smooth="yes"/>
      <point x="43" y="177" type="line"/>
      <point x="154" y="177" type="line"/>
      <point x="154" y="84" type="line"/>
      <point x="293" y="84" type="line"/>
      <point x="293" y="179" type="line"/>
      <point x="81" y="267" type="line" smooth="yes"/>
      <point x="52" y="279"/>
      <point x="43" y="291"/>
      <point x="43" y="322" type="curve" smooth="yes"/>
      <point x="43" y="408" type="line" smooth="yes"/>
      <point x="43" y="444"/>
      <point x="53" y="457"/>
      <point x="79" y="469" type="curve" smooth="yes"/>
      <point x="128" y="492" type="line"/>
      <point x="80" y="515" type="line" smooth="yes"/>
      <point x="54" y="528"/>
      <point x="43" y="540"/>
      <point x="43" y="576" type="curve" smooth="yes"/>
      <point x="43" y="703" type="line" smooth="yes"/>
      <point x="43" y="742"/>
      <point x="66" y="764"/>
      <point x="105" y="764" type="curve" smooth="yes"/>
      <point x="341" y="764" type="line" smooth="yes"/>
      <point x="381" y="764"/>
      <point x="403" y="742"/>
      <point x="403" y="703" type="curve" smooth="yes"/>
      <point x="403" y="587" type="line"/>
      <point x="293" y="587" type="line"/>
      <point x="293" y="680" type="line"/>
      <point x="154" y="680" type="line"/>
      <point x="154" y="585" type="line"/>
      <point x="365" y="497" type="line" smooth="yes"/>
      <point x="394" y="485"/>
      <point x="403" y="473"/>
      <point x="403" y="442" type="curve" smooth="yes"/>
      <point x="403" y="356" type="line" smooth="yes"/>
      <point x="403" y="319"/>
      <point x="393" y="307"/>
      <point x="367" y="295" type="curve" smooth="yes"/>
      <point x="318" y="272" type="line"/>
      <point x="366" y="249" type="line" smooth="yes"/>
      <point x="393" y="236"/>
      <point x="403" y="224"/>
      <point x="403" y="188" type="curve" smooth="yes"/>
    </contour>
    <contour>
      <point x="295" y="339" type="line"/>
      <point x="295" y="425" type="line"/>
      <point x="223" y="458" type="line"/>
      <point x="152" y="425" type="line"/>
      <point x="152" y="339" type="line"/>
      <point x="223" y="306" type="line"/>
    </contour>
  </outline>
</glyph>
<glyph name="dieresis" format="2">
  <advance width="408"/>
  <unicode hex="00A8"/>
  <outline>
    <contour>
      <point x="332" y="526" type="line"/>
      <point x="225" y="526" type="line"/>
      <point x="225" y="631" type="line"/>
      <point x="332" y="631" type="line"/>
    </contour>
    <contour>
      <point x="183" y="526" type="line"/>
      <point x="76" y="526" type="line"/>
      <point x="76" y="631" type="line"/>
      <point x="183" y="631" type="line"/>
    </contour>
  </outline>
</glyph>
<glyph name="ordfeminine" format="2">
  <advance width="345"/>
  <unicode hex="00AA"/>
  <outline>
    <contour>
      <point x="303" y="374" type="line"/>
      <point x="212" y="374" type="line"/>
      <point x="212" y="387" type="line"/>
      <point x="121" y="375" type="line" smooth="yes"/>
      <point x="110" y="374"/>
      <point x="99" y="372"/>
      <point x="91" y="372" type="curve" smooth="yes"/>
      <point x="58" y="372"/>
      <point x="42" y="387"/>
      <point x="42" y="419" type="curve" smooth="yes"/>
      <point x="42" y="561" type="line" smooth="yes"/>
      <point x="42" y="593"/>
      <point x="58" y="609"/>
      <point x="93" y="609" type="curve" smooth="yes"/>
      <point x="213" y="609" type="line"/>
      <point x="213" y="696" type="line"/>
      <point x="130" y="696" type="line"/>
      <point x="130" y="643" type="line"/>
      <point x="46" y="643" type="line"/>
      <point x="46" y="716" type="line" smooth="yes"/>
      <point x="46" y="749"/>
      <point x="63" y="764"/>
      <point x="97" y="764" type="curve" smooth="yes"/>
      <point x="251" y="764" type="line" smooth="yes"/>
      <point x="286" y="764"/>
      <point x="303" y="749"/>
      <point x="303" y="716" type="curve" smooth="yes"/>
    </contour>
    <contour>
      <point x="303" y="250" type="line"/>
      <point x="42" y="250" type="line"/>
      <point x="42" y="325" type="line"/>
      <point x="303" y="325" type="line"/>
    </contour>
    <contour>
      <point x="213" y="445" type="line"/>
      <point x="213" y="549" type="line"/>
      <point x="130" y="549" type="line"/>
      <point x="130" y="442" type="line"/>
    </contour>
  </outline>
</glyph>
<glyph name="guillemotleft" format="2">
  <advance width="506"/>
  <unicode hex="00AB"/>
  <outline>
    <contour>
      <point x="467" y="76" type="line"/>
      <point x="345" y="76" type="line"/>
      <point x="221" y="262" type="line"/>
      <point x="221" y="280" type="line"/>
      <point x="345" y="466" type="line"/>
      <point x="467" y="466" type="line"/>
      <point x="467" y="462" type="line"/>
      <point x="340" y="271" type="line"/>
      <point x="467" y="80" type="line"/>
    </contour>
    <contour>
      <point x="278" y="76" type="line"/>
      <point x="156" y="76" type="line"/>
      <point x="32" y="262" type="line"/>
      <point x="32" y="280" type="line"/>
      <point x="156" y="466" type="line"/>
      <point x="278" y="466" type="line"/>
      <point x="278" y="462" type="line"/>
      <point x="152" y="271" type="line"/>
      <point x="278" y="80" type="line"/>
    </contour>
  </outline>
</glyph>
<glyph name="registered" format="2">
  <advance width="583"/>
  <unicode hex="00AE"/>
  <outline>
    <contour>
      <point x="538" y="44" type="line" smooth="yes"/>
      <point x="538" y="16"/>
      <point x="522" y="0"/>
      <point x="494" y="0" type="curve" smooth="yes"/>
      <point x="89" y="0" type="line" smooth="yes"/>
      <point x="60" y="0"/>
      <point x="45" y="16"/>
      <point x="45" y="44" type="curve" smooth="yes"/>
      <point x="45" y="720" type="line" smooth="yes"/>
      <point x="45" y="748"/>
      <point x="60" y="764"/>
      <point x="89" y="764" type="curve" smooth="yes"/>
      <point x="494" y="764" type="line" smooth="yes"/>
      <point x="522" y="764"/>
      <point x="538" y="748"/>
      <point x="538" y="720" type="curve" smooth="yes"/>
    </contour>
    <contour>
      <point x="486" y="50" type="line"/>
      <point x="486" y="714" type="line"/>
      <point x="97" y="714" type="line"/>
      <point x="97" y="50" type="line"/>
    </contour>
    <contour>
      <point x="419" y="168" type="line"/>
      <point x="339" y="168" type="line"/>
      <point x="270" y="354" type="line"/>
      <point x="276" y="410" type="line"/>
      <point x="328" y="410" type="line"/>
      <point x="328" y="532" type="line"/>
      <point x="256" y="532" type="line"/>
      <point x="256" y="168" type="line"/>
      <point x="177" y="168" type="line"/>
      <point x="177" y="598" type="line"/>
      <point x="361" y="598" type="line" smooth="yes"/>
      <point x="389" y="598"/>
      <point x="406" y="581"/>
      <point x="406" y="552" type="curve" smooth="yes"/>
      <point x="406" y="396" type="line" smooth="yes"/>
      <point x="406" y="370"/>
      <point x="391" y="354"/>
      <point x="371" y="351" type="curve"/>
      <point x="351" y="350" type="line"/>
      <point x="419" y="173" type="line"/>
    </contour>
  </outline>
</glyph>
<glyph name="macron" format="2">
  <advance width="408"/>
  <unicode hex="00AF"/>
  <unicode hex="02C9"/>
  <outline>
    <contour>
      <point x="332" y="535" type="line"/>
      <point x="76" y="535" type="line"/>
      <point x="76" y="612" type="line"/>
      <point x="332" y="612" type="line"/>
    </contour>
  </outline>
</glyph>
<glyph name="degree" format="2">
  <advance width="321"/>
  <unicode hex="00B0"/>
  <outline>
    <contour>
      <point x="284" y="499" type="line" smooth="yes"/>
      <point x="284" y="458"/>
      <point x="265" y="439"/>
      <point x="225" y="439" type="curve" smooth="yes"/>
      <point x="96" y="439" type="line" smooth="yes"/>
      <point x="56" y="439"/>
      <point x="37" y="458"/>
      <point x="37" y="499" type="curve" smooth="yes"/>
      <point x="37" y="705" type="line" smooth="yes"/>
      <point x="37" y="746"/>
      <point x="56" y="764"/>
      <point x="96" y="764" type="curve" smooth="yes"/>
      <point x="225" y="764" type="line" smooth="yes"/>
      <point x="265" y="764"/>
      <point x="284" y="746"/>
      <point x="284" y="705" type="curve" smooth="yes"/>
    </contour>
    <contour>
      <point x="208" y="509" type="line"/>
      <point x="208" y="694" type="line"/>
      <point x="112" y="694" type="line"/>
      <point x="112" y="509" type="line"/>
    </contour>
  </outline>
</glyph>
<glyph name="Aring" format="2">
  <advance width="451"/>
  <unicode hex="00C5"/>
  <outline>
    <contour>
      <point x="433" y="0" type="line"/>
      <point x="320" y="0" type="line"/>
      <point x="297" y="145" type="line"/>
      <point x="154" y="145" type="line"/>
      <point x="131" y="0" type="line"/>
      <point x="18" y="0" type="line"/>
      <point x="18" y="2" type="line"/>
      <point x="156" y="715" type="line"/>
      <point x="147" y="715" type="line"/>
      <point x="125" y="720"/>
      <point x="114" y="735"/>
      <point x="114" y="763" type="curve" smooth="yes"/>
      <point x="114" y="861" type="line" smooth="yes"/>
      <point x="114" y="895"/>
      <point x="131" y="912"/>
      <point x="165" y="912" type="curve" smooth="yes"/>
      <point x="286" y="912" type="line" smooth="yes"/>
      <point x="320" y="912"/>
      <point x="337" y="895"/>
      <point x="337" y="861" type="curve" smooth="yes"/>
      <point x="337" y="763" type="line" smooth="yes"/>
      <point x="337" y="734"/>
      <point x="326" y="720"/>
      <point x="304" y="715" type="curve"/>
      <point x="296" y="715" type="line"/>
      <point x="433" y="2" type="line"/>
    </contour>
    <contour>
      <point x="262" y="774" type="line"/>
      <point x="262" y="849" type="line"/>
      <point x="189" y="849" type="line"/>
      <point x="189" y="774" type="line"/>
    </contour>
    <contour>
      <point x="281" y="243" type="line"/>
      <point x="225" y="588" type="line"/>
      <point x="169" y="243" type="line"/>
    </contour>
  </outline>
</glyph>
<glyph name="AE" format="2">
  <advance width="623"/>
  <unicode hex="00C6"/>
  <outline>
    <contour>
      <point x="591" y="0" type="line"/>
      <point x="282" y="0" type="line"/>
      <point x="282" y="145" type="line"/>
      <point x="163" y="145" type="line"/>
      <point x="125" y="0" type="line"/>
      <point x="13" y="0" type="line"/>
      <point x="13" y="2" type="line"/>
      <point x="231" y="764" type="line"/>
      <point x="588" y="764" type="line"/>
      <point x="588" y="663" type="line"/>
      <point x="393" y="663" type="line"/>
      <point x="393" y="441" type="line"/>
      <point x="560" y="441" type="line"/>
      <point x="560" y="341" type="line"/>
      <point x="393" y="341" type="line"/>
      <point x="393" y="101" type="line"/>
      <point x="591" y="101" type="line"/>
    </contour>
    <contour>
      <point x="282" y="243" type="line"/>
      <point x="282" y="614" type="line"/>
      <point x="188" y="243" type="line"/>
    </contour>
  </outline>
</glyph>
<glyph name="Ccedilla" format="2">
  <advance width="466"/>
  <unicode hex="00C7"/>
  <outline>
    <contour>
      <point x="422" y="70" type="line" smooth="yes"/>
      <point x="422" y="25"/>
      <point x="397" y="0"/>
      <point x="352" y="0" type="curve" smooth="yes"/>
      <point x="269" y="0" type="line"/>
      <point x="269" y="-20" type="line"/>
      <point x="314" y="-43" type="line" smooth="yes"/>
      <point x="337" y="-55"/>
      <point x="341" y="-64"/>
      <point x="341" y="-90" type="curve" smooth="yes"/>
      <point x="341" y="-142" type="line" smooth="yes"/>
      <point x="341" y="-174"/>
      <point x="326" y="-189"/>
      <point x="294" y="-189" type="curve" smooth="yes"/>
      <point x="173" y="-189" type="line" smooth="yes"/>
      <point x="141" y="-189"/>
      <point x="126" y="-174"/>
      <point x="126" y="-142" type="curve" smooth="yes"/>
      <point x="126" y="-89" type="line"/>
      <point x="201" y="-89" type="line"/>
      <point x="201" y="-130" type="line"/>
      <point x="265" y="-130" type="line"/>
      <point x="265" y="-89" type="line"/>
      <point x="222" y="-70" type="line" smooth="yes"/>
      <point x="201" y="-61"/>
      <point x="194" y="-50"/>
      <point x="194" y="-24" type="curve" smooth="yes"/>
      <point x="194" y="0" type="line"/>
      <point x="114" y="0" type="line" smooth="yes"/>
      <point x="70" y="0"/>
      <point x="46" y="25"/>
      <point x="46" y="70" type="curve" smooth="yes"/>
      <point x="46" y="694" type="line" smooth="yes"/>
      <point x="46" y="739"/>
      <point x="70" y="764"/>
      <point x="114" y="764" type="curve" smooth="yes"/>
      <point x="352" y="764" type="line" smooth="yes"/>
      <point x="397" y="764"/>
      <point x="422" y="739"/>
      <point x="422" y="694" type="curve" smooth="yes"/>
      <point x="422" y="515" type="line"/>
      <point x="308" y="515" type="line"/>
      <point x="308" y="666" type="line"/>
      <point x="160" y="666" type="line"/>
      <point x="160" y="98" type="line"/>
      <point x="308" y="98" type="line"/>
      <point x="308" y="259" type="line"/>
      <point x="422" y="259" type="line"/>
    </contour>
  </outline>
</glyph>
<glyph name="Eth" format="2">
  <advance width="485"/>
  <unicode hex="00D0"/>
  <outline>
    <contour>
      <point x="441" y="145" type="line" smooth="yes"/>
      <point x="441" y="60"/>
      <point x="382" y="0"/>
      <point x="292" y="0" type="curve" smooth="yes"/>
      <point x="60" y="0" type="line"/>
      <point x="60" y="338" type="line"/>
      <point x="19" y="338" type="line"/>
      <point x="19" y="441" type="line"/>
      <point x="60" y="441" type="line"/>
      <point x="60" y="764" type="line"/>
      <point x="292" y="764" type="line" smooth="yes"/>
      <point x="383" y="764"/>
      <point x="441" y="703"/>
      <point x="441" y="618" type="curve" smooth="yes"/>
    </contour>
    <contour>
      <point x="327" y="166" type="curve" smooth="yes"/>
      <point x="327" y="599" type="line" smooth="yes"/>
      <point x="327" y="640"/>
      <point x="299" y="665"/>
      <point x="258" y="665" type="curve" smooth="yes"/>
      <point x="174" y="665" type="line"/>
      <point x="174" y="441" type="line"/>
      <point x="240" y="441" type="line"/>
      <point x="240" y="338" type="line"/>
      <point x="174" y="338" type="line"/>
      <point x="174" y="99" type="line"/>
      <point x="256" y="99" type="line" smooth="yes"/>
      <point x="301" y="99"/>
      <point x="327" y="125"/>
    </contour>
  </outline>
</glyph>
<glyph name="Thorn" format="2">
  <advance width="452"/>
  <unicode hex="00DE"/>
  <outline>
    <contour>
      <point x="416" y="214" type="line" smooth="yes"/>
      <point x="416" y="165"/>
      <point x="392" y="141"/>
      <point x="343" y="141" type="curve" smooth="yes"/>
      <point x="160" y="141" type="line"/>
      <point x="160" y="0" type="line"/>
      <point x="46" y="0" type="line"/>
      <point x="46" y="764" type="line"/>
      <point x="160" y="764" type="line"/>
      <point x="160" y="631" type="line"/>
      <point x="343" y="631" type="line" smooth="yes"/>
      <point x="392" y="631"/>
      <point x="416" y="608"/>
      <point x="416" y="558" type="curve" smooth="yes"/>
    </contour>
    <contour>
      <point x="302" y="238" type="line"/>
      <point x="302" y="533" type="line"/>
      <point x="160" y="533" type="line"/>
      <point x="160" y="238" type="line"/>
    </contour>
  </outline>
</glyph>
<glyph name="ae" format="2">
  <advance width="595"/>
  <unicode hex="00E6"/>
  <anchor x="297.5" y="493" name="top"/>
  <outline>
    <contour>
      <point x="555" y="61" type="line" smooth="yes"/>
      <point x="555" y="20"/>
      <point x="535" y="0"/>
      <point x="493" y="0" type="curve" smooth="yes"/>
      <point x="310" y="0" type="line" smooth="yes"/>
      <point x="285" y="0"/>
      <point x="269" y="6"/>
      <point x="259" y="19" type="curve"/>
      <point x="133" y="2" type="line" smooth="yes"/>
      <point x="119" y="0"/>
      <point x="109" y="-2"/>
      <point x="99" y="-2" type="curve" smooth="yes"/>
      <point x="58" y="-2"/>
      <point x="38" y="18"/>
      <point x="38" y="58" type="curve" smooth="yes"/>
      <point x="38" y="235" type="line" smooth="yes"/>
      <point x="38" y="277"/>
      <point x="58" y="296"/>
      <point x="101" y="296" type="curve" smooth="yes"/>
      <point x="247" y="296" type="line"/>
      <point x="247" y="410" type="line"/>
      <point x="145" y="410" type="line"/>
      <point x="145" y="339" type="line"/>
      <point x="44" y="339" type="line"/>
      <point x="44" y="432" type="line" smooth="yes"/>
      <point x="44" y="473"/>
      <point x="64" y="493"/>
      <point x="107" y="493" type="curve" smooth="yes"/>
      <point x="493" y="493" type="line" smooth="yes"/>
      <point x="535" y="493"/>
      <point x="555" y="473"/>
      <point x="555" y="432" type="curve" smooth="yes"/>
      <point x="555" y="251" type="line"/>
      <point x="524" y="221" type="line"/>
      <point x="348" y="221" type="line"/>
      <point x="348" y="82" type="line"/>
      <point x="448" y="82" type="line"/>
      <point x="448" y="165" type="line"/>
      <point x="555" y="165" type="line"/>
    </contour>
    <contour>
      <point x="448" y="295" type="line"/>
      <point x="448" y="411" type="line"/>
      <point x="348" y="411" type="line"/>
      <point x="348" y="295" type="line"/>
    </contour>
    <contour>
      <point x="247" y="88" type="line"/>
      <point x="247" y="221" type="line"/>
      <point x="145" y="221" type="line"/>
      <point x="145" y="84" type="line"/>
    </contour>
  </outline>
</glyph>
<glyph name="ccedilla" format="2">
  <advance width="399"/>
  <unicode hex="00E7"/>
  <outline>
    <contour>
      <point x="359" y="61" type="line" smooth="yes"/>
      <point x="359" y="20"/>
      <point x="339" y="0"/>
      <point x="297" y="0" type="curve" smooth="yes"/>
      <point x="235" y="0" type="line"/>
      <point x="235" y="-20" type="line"/>
      <point x="280" y="-43" type="line" smooth="yes"/>
      <point x="303" y="-55"/>
      <point x="308" y="-64"/>
      <point x="308" y="-90" type="curve" smooth="yes"/>
      <point x="308" y="-142" type="line" smooth="yes"/>
      <point x="308" y="-174"/>
      <point x="292" y="-189"/>
      <point x="261" y="-189" type="curve" smooth="yes"/>
      <point x="139" y="-189" type="line" smooth="yes"/>
      <point x="107" y="-189"/>
      <point x="92" y="-174"/>
      <point x="92" y="-142" type="curve" smooth="yes"/>
      <point x="92" y="-89" type="line"/>
      <point x="167" y="-89" type="line"/>
      <point x="167" y="-130" type="line"/>
      <point x="232" y="-130" type="line"/>
      <point x="232" y="-89" type="line"/>
      <point x="189" y="-70" type="line" smooth="yes"/>
      <point x="168" y="-61"/>
      <point x="161" y="-50"/>
      <point x="161" y="-24" type="curve" smooth="yes"/>
      <point x="161" y="0" type="line"/>
      <point x="103" y="0" type="line" smooth="yes"/>
      <point x="60" y="0"/>
      <point x="40" y="20"/>
      <point x="40" y="61" type="curve" smooth="yes"/>
      <point x="40" y="432" type="line" smooth="yes"/>
      <point x="40" y="473"/>
      <point x="60" y="493"/>
      <point x="103" y="493" type="curve" smooth="yes"/>
      <point x="297" y="493" type="line" smooth="yes"/>
      <point x="339" y="493"/>
      <point x="359" y="473"/>
      <point x="359" y="432" type="curve" smooth="yes"/>
      <point x="359" y="315" type="line"/>
      <point x="250" y="315" type="line"/>
      <point x="250" y="400" type="line"/>
      <point x="150" y="400" type="line"/>
      <point x="150" y="93" type="line"/>
      <point x="250" y="93" type="line"/>
      <point x="250" y="187" type="line"/>
      <point x="359" y="187" type="line"/>
    </contour>
  </outline>
</glyph>
<glyph name="eth" format="2">
  <advance width="407"/>
  <unicode hex="00F0"/>
  <outline>
    <contour>
      <point x="415" y="585" type="line"/>
      <point x="368" y="569" type="line"/>
      <point x="368" y="61" type="line" smooth="yes"/>
      <point x="368" y="20"/>
      <point x="348" y="0"/>
      <point x="306" y="0" type="curve" smooth="yes"/>
      <point x="104" y="0" type="line" smooth="yes"/>
      <point x="62" y="0"/>
      <point x="40" y="21"/>
      <point x="40" y="61" type="curve" smooth="yes"/>
      <point x="40" y="432" type="line" smooth="yes"/>
      <point x="40" y="474"/>
      <point x="60" y="493"/>
      <point x="103" y="493" type="curve" smooth="yes"/>
      <point x="258" y="493" type="line"/>
      <point x="258" y="532" type="line"/>
      <point x="227" y="522" type="line"/>
      <point x="223" y="522" type="line"/>
      <point x="223" y="615" type="line"/>
      <point x="258" y="626" type="line"/>
      <point x="258" y="681" type="line"/>
      <point x="154" y="681" type="line"/>
      <point x="154" y="599" type="line"/>
      <point x="44" y="599" type="line"/>
      <point x="44" y="703" type="line" smooth="yes"/>
      <point x="44" y="744"/>
      <point x="64" y="764"/>
      <point x="106" y="764" type="curve" smooth="yes"/>
      <point x="306" y="764" type="line" smooth="yes"/>
      <point x="348" y="764"/>
      <point x="368" y="744"/>
      <point x="368" y="703" type="curve" smooth="yes"/>
      <point x="368" y="662" type="line"/>
      <point x="411" y="676" type="line"/>
      <point x="415" y="676" type="line"/>
    </contour>
    <contour>
      <point x="258" y="88" type="line"/>
      <point x="258" y="405" type="line"/>
      <point x="152" y="405" type="line"/>
      <point x="152" y="88" type="line"/>
    </contour>
  </outline>
</glyph>
<glyph name="oslash" format="2">
  <advance width="406"/>
  <unicode hex="00F8"/>
  <anchor x="203.0" y="493" name="top"/>
  <outline>
    <contour>
      <point x="365" y="61" type="line" smooth="yes"/>
      <point x="365" y="20"/>
      <point x="345" y="0"/>
      <point x="303" y="0" type="curve" smooth="yes"/>
      <point x="173" y="0" type="line"/>
      <point x="147" y="-75" type="line"/>
      <point x="41" y="-75" type="line"/>
      <point x="41" y="-69" type="line"/>
      <point x="67" y="7" type="line"/>
      <point x="49" y="16"/>
      <point x="40" y="34"/>
      <point x="40" y="61" type="curve" smooth="yes"/>
      <point x="40" y="432" type="line" smooth="yes"/>
      <point x="40" y="473"/>
      <point x="60" y="493"/>
      <point x="103" y="493" type="curve" smooth="yes"/>
      <point x="231" y="493" type="line"/>
      <point x="257" y="568" type="line"/>
      <point x="364" y="568" type="line"/>
      <point x="364" y="562" type="line"/>
      <point x="338" y="486" type="line"/>
      <point x="356" y="477"/>
      <point x="365" y="459"/>
      <point x="365" y="432" type="curve" smooth="yes"/>
    </contour>
    <contour>
      <point x="256" y="93" type="line"/>
      <point x="256" y="400" type="line"/>
      <point x="150" y="400" type="line"/>
      <point x="150" y="93" type="line"/>
    </contour>
  </outline>
</glyph>
<glyph name="Hbar" format="2">
  <advance width="506"/>
  <unicode hex="0126"/>
  <outline>
    <contour>
      <point x="488" y="578" type="line"/>
      <point x="18" y="578" type="line"/>
      <point x="18" y="670" type="line"/>
      <point x="488" y="670" type="line"/>
    </contour>
    <component base="H" xOffset="15"/>
  </outline>
</glyph>
<glyph name="hbar" format="2">
  <advance width="409"/>
  <unicode hex="0127"/>
  <guideline x="6" y="710" angle="90" identifier="svula6YzJt"/>
  <outline>
    <contour>
      <point x="272" y="578" type="line"/>
      <point x="-1" y="578" type="line"/>
      <point x="-1" y="670" type="line"/>
      <point x="272" y="670" type="line"/>
    </contour>
    <component base="h"/>
  </outline>
</glyph>
<glyph name="dotlessi" format="2">
  <advance width="196"/>
  <unicode hex="0131"/>
  <anchor x="98.0" y="493" name="top"/>
  <outline>
    <contour>
      <point x="153" y="0" type="line"/>
      <point x="43" y="0" type="line"/>
      <point x="43" y="493" type="line"/>
      <point x="153" y="493" type="line"/>
    </contour>
  </outline>
</glyph>
<glyph name="lslash" format="2">
  <advance width="248"/>
  <unicode hex="0142"/>
  <outline>
    <contour>
      <point x="229" y="350" type="line"/>
      <point x="178" y="316" type="line"/>
      <point x="178" y="0" type="line"/>
      <point x="68" y="0" type="line"/>
      <point x="68" y="243" type="line"/>
      <point x="26" y="215" type="line"/>
      <point x="19" y="215" type="line"/>
      <point x="19" y="319" type="line"/>
      <point x="68" y="352" type="line"/>
      <point x="68" y="764" type="line"/>
      <point x="178" y="764" type="line"/>
      <point x="178" y="425" type="line"/>
      <point x="223" y="454" type="line"/>
      <point x="229" y="454" type="line"/>
    </contour>
  </outline>
</glyph>
<glyph name="Eng" format="2">
  <advance width="479"/>
  <unicode hex="014A"/>
  <outline>
    <contour>
      <point x="433" y="-119" type="line" smooth="yes"/>
      <point x="433" y="-160"/>
      <point x="414" y="-180"/>
      <point x="371" y="-180" type="curve" smooth="yes"/>
      <point x="252" y="-180" type="line"/>
      <point x="252" y="-87" type="line"/>
      <point x="323" y="-87" type="line"/>
      <point x="323" y="129" type="line"/>
      <point x="433" y="129" type="line"/>
    </contour>
    <component base="N"/>
    <component base="engtail" xOffset="226"/>
  </outline>
</glyph>
<glyph name="eng" format="2">
  <advance width="409"/>
  <unicode hex="014B"/>
  <outline>
    <contour>
      <point x="369" y="-119" type="line" smooth="yes"/>
      <point x="369" y="-160"/>
      <point x="348" y="-180"/>
      <point x="305" y="-180" type="curve" smooth="yes"/>
      <point x="186" y="-180" type="line"/>
      <point x="186" y="-87" type="line"/>
      <point x="257" y="-87" type="line"/>
      <point x="257" y="123" type="line"/>
      <point x="369" y="123" type="line"/>
    </contour>
    <component base="n"/>
  </outline>
</glyph>
<glyph name="tbar" format="2">
  <advance width="275"/>
  <unicode hex="0167"/>
  <outline>
    <contour>
      <point x="251" y="194" type="line"/>
      <point x="15" y="194" type="line"/>
      <point x="15" y="296" type="line"/>
      <point x="251" y="296" type="line"/>
    </contour>
    <component base="t"/>
  </outline>
</glyph>
<glyph name="florin" format="2">
  <advance width="354"/>
  <unicode hex="0192"/>
  <outline>
    <contour>
      <point x="348" y="764" type="line"/>
      <point x="336" y="667" type="line"/>
      <point x="243" y="667" type="line"/>
      <point x="220" y="493" type="line"/>
      <point x="301" y="493" type="line"/>
      <point x="289" y="398" type="line"/>
      <point x="207" y="398" type="line"/>
      <point x="138" y="-119" type="line" smooth="yes"/>
      <point x="133" y="-160"/>
      <point x="111" y="-180"/>
      <point x="69" y="-180" type="curve" smooth="yes"/>
      <point x="-55" y="-180" type="line"/>
      <point x="-43" y="-87" type="line"/>
      <point x="32" y="-87" type="line"/>
      <point x="97" y="398" type="line"/>
      <point x="42" y="398" type="line"/>
      <point x="54" y="493" type="line"/>
      <point x="109" y="493" type="line"/>
      <point x="137" y="703" type="line" smooth="yes"/>
      <point x="142" y="744"/>
      <point x="165" y="764"/>
      <point x="207" y="764" type="curve" smooth="yes"/>
    </contour>
  </outline>
</glyph>
<glyph name="dotlessj" format="2">
  <advance width="196"/>
  <unicode hex="0237"/>
  <anchor x="99.0" y="493" name="top"/>
  <outline>
    <contour>
      <point x="153" y="-119" type="line" smooth="yes"/>
      <point x="153" y="-160"/>
      <point x="134" y="-180"/>
      <point x="91" y="-180" type="curve" smooth="yes"/>
      <point x="-28" y="-180" type="line"/>
      <point x="-28" y="-87" type="line"/>
      <point x="43" y="-87" type="line"/>
      <point x="43" y="493" type="line"/>
      <point x="153" y="493" type="line"/>
    </contour>
  </outline>
</glyph>
<glyph name="dotaccent" format="2">
  <advance width="408"/>
  <unicode hex="02D9"/>
  <outline>
    <contour>
      <point x="259" y="526" type="line"/>
      <point x="150" y="526" type="line"/>
      <point x="150" y="635" type="line"/>
      <point x="259" y="635" type="line"/>
    </contour>
  </outline>
</glyph>
<glyph name="ring" format="2">
  <advance width="408"/>
  <unicode hex="02DA"/>
  <outline>
    <contour>
      <point x="316" y="577" type="line" smooth="yes"/>
      <point x="316" y="543"/>
      <point x="298" y="526"/>
      <point x="264" y="526" type="curve" smooth="yes"/>
      <point x="144" y="526" type="line" smooth="yes"/>
      <point x="110" y="526"/>
      <point x="93" y="543"/>
      <point x="93" y="577" type="curve" smooth="yes"/>
      <point x="93" y="675" type="line" smooth="yes"/>
      <point x="93" y="709"/>
      <point x="110" y="726"/>
      <point x="144" y="726" type="curve" smooth="yes"/>
      <point x="264" y="726" type="line" smooth="yes"/>
      <point x="298" y="726"/>
      <point x="316" y="709"/>
      <point x="316" y="675" type="curve" smooth="yes"/>
    </contour>
    <contour>
      <point x="240" y="589" type="line"/>
      <point x="240" y="663" type="line"/>
      <point x="168" y="663" type="line"/>
      <point x="168" y="589" type="line"/>
    </contour>
  </outline>
</glyph>
<glyph name="tilde" format="2">
  <advance width="408"/>
  <unicode hex="02DC"/>
  <outline>
    <contour>
      <point x="333" y="571" type="line" smooth="yes"/>
      <point x="333" y="541"/>
      <point x="316" y="525"/>
      <point x="287" y="525" type="curve" smooth="yes"/>
      <point x="273" y="525"/>
      <point x="259" y="528"/>
      <point x="244" y="534" type="curve" smooth="yes"/>
      <point x="152" y="569" type="line"/>
      <point x="152" y="526" type="line"/>
      <point x="75" y="526" type="line"/>
      <point x="75" y="603" type="line" smooth="yes"/>
      <point x="75" y="633"/>
      <point x="92" y="649"/>
      <point x="121" y="649" type="curve" smooth="yes"/>
      <point x="135" y="649"/>
      <point x="148" y="647"/>
      <point x="165" y="640" type="curve" smooth="yes"/>
      <point x="255" y="605" type="line"/>
      <point x="255" y="648" type="line"/>
      <point x="333" y="648" type="line"/>
    </contour>
  </outline>
</glyph>
<glyph name="hungarumlaut" format="2">
  <advance width="408"/>
  <unicode hex="02DD"/>
  <outline>
    <contour>
      <point x="383" y="653" type="line"/>
      <point x="251" y="526" type="line"/>
      <point x="182" y="526" type="line"/>
      <point x="182" y="530" type="line"/>
      <point x="260" y="656" type="line"/>
      <point x="383" y="656" type="line"/>
    </contour>
    <contour>
      <point x="230" y="653" type="line"/>
      <point x="98" y="526" type="line"/>
      <point x="29" y="526" type="line"/>
      <point x="29" y="530" type="line"/>
      <point x="107" y="656" type="line"/>
      <point x="230" y="656" type="line"/>
    </contour>
  </outline>
</glyph>
<glyph name="ogonekcmb" format="2">
  <unicode hex="0328"/>
  <anchor x="0" y="0" name="_ogonek"/>
  <outline>
    <contour>
      <point x="103" y="-189" type="line"/>
      <point x="-64" y="-189" type="line" smooth="yes"/>
      <point x="-95" y="-189"/>
      <point x="-111" y="-174"/>
      <point x="-111" y="-142" type="curve" smooth="yes"/>
      <point x="-111" y="-88" type="line" smooth="yes"/>
      <point x="-111.0" y="-62.0"/>
      <point x="-106" y="-50"/>
      <point x="-89" y="-35" type="curve" smooth="yes"/>
      <point x="-32" y="14" type="line"/>
      <point x="69" y="5" type="line"/>
      <point x="69" y="0" type="line"/>
      <point x="-26" y="-81" type="line"/>
      <point x="-26" y="-124" type="line"/>
      <point x="103" y="-124" type="line"/>
    </contour>
  </outline>
</glyph>
<glyph name="Germandbls" format="2">
  <advance width="521"/>
  <unicode hex="1E9E"/>
  <outline>
    <contour>
      <point x="160" y="343" type="line"/>
      <point x="160" y="0" type="line"/>
      <point x="46" y="0" type="line"/>
      <point x="46" y="764" type="line"/>
      <point x="160" y="764" type="line"/>
      <point x="160" y="449" type="line"/>
    </contour>
    <contour>
      <point x="265" y="0" type="line"/>
      <point x="221" y="0"/>
      <point x="196" y="25"/>
      <point x="196" y="70" type="curve" smooth="yes"/>
      <point x="196" y="252" type="line"/>
      <point x="310" y="252" type="line"/>
      <point x="310" y="96" type="line"/>
      <point x="390" y="96" type="line"/>
      <point x="390" y="246" type="line"/>
      <point x="231" y="440" type="line"/>
      <point x="348" y="661" type="line"/>
      <point x="100" y="661" type="line"/>
      <point x="100" y="764" type="line"/>
      <point x="493" y="764" type="line"/>
      <point x="493" y="698" type="line"/>
      <point x="354" y="429" type="line"/>
      <point x="350" y="480" type="line"/>
      <point x="479" y="314" type="line" smooth="yes"/>
      <point x="495" y="293"/>
      <point x="504" y="281"/>
      <point x="504" y="252" type="curve" smooth="yes"/>
      <point x="504" y="70" type="line" smooth="yes"/>
      <point x="504" y="25"/>
      <point x="479" y="0"/>
      <point x="435" y="0" type="curve" smooth="yes"/>
    </contour>
  </outline>
</glyph>
<glyph name="emdash" format="2">
  <advance width="652"/>
  <unicode hex="2014"/>
  <outline>
    <contour>
      <point x="614" y="241" type="line"/>
      <point x="37" y="241" type="line"/>
      <point x="37" y="345" type="line"/>
      <point x="614" y="345" type="line"/>
    </contour>
  </outline>
</glyph>
<glyph name="quoteleft" format="2">
  <advance width="196"/>
  <unicode hex="2018"/>
  <unicode hex="02BB"/>
  <outline>
    <contour>
      <point x="165" y="764" type="line"/>
      <point x="140" y="525" type="line"/>
      <point x="24" y="525" type="line"/>
      <point x="93" y="764" type="line"/>
    </contour>
  </outline>
</glyph>
<glyph name="bullet" format="2">
  <advance width="461"/>
  <unicode hex="2022"/>
  <outline>
    <contour>
      <point x="414" y="265" type="line" smooth="yes"/>
      <point x="414" y="217"/>
      <point x="391" y="194"/>
      <point x="343" y="194" type="curve" smooth="yes"/>
      <point x="118" y="194" type="line" smooth="yes"/>
      <point x="70" y="194"/>
      <point x="46" y="217"/>
      <point x="46" y="265" type="curve" smooth="yes"/>
      <point x="46" y="498" type="line" smooth="yes"/>
      <point x="46" y="546"/>
      <point x="70" y="569"/>
      <point x="118" y="569" type="curve" smooth="yes"/>
      <point x="343" y="569" type="line" smooth="yes"/>
      <point x="391" y="569"/>
      <point x="414" y="546"/>
      <point x="414" y="498" type="curve" smooth="yes"/>
    </contour>
  </outline>
</glyph>
<glyph name="guilsinglright" format="2">
  <advance width="318"/>
  <unicode hex="203A"/>
  <outline>
    <contour>
      <point x="286" y="262" type="line"/>
      <point x="161" y="76" type="line"/>
      <point x="39" y="76" type="line"/>
      <point x="39" y="80" type="line"/>
      <point x="166" y="271" type="line"/>
      <point x="39" y="462" type="line"/>
      <point x="39" y="466" type="line"/>
      <point x="161" y="466" type="line"/>
      <point x="286" y="280" type="line"/>
    </contour>
  </outline>
</glyph>
<glyph name="Euro" format="2">
  <advance width="473"/>
  <unicode hex="20AC"/>
  <outline>
    <contour>
      <point x="170" y="413" type="line"/>
      <point x="170" y="363" type="line"/>
      <point x="327" y="363" type="line"/>
      <point x="327" y="291" type="line"/>
      <point x="170" y="291" type="line"/>
      <point x="170" y="98" type="line"/>
      <point x="315" y="98" type="line"/>
      <point x="315" y="246" type="line"/>
      <point x="429" y="246" type="line"/>
      <point x="429" y="70" type="line" smooth="yes"/>
      <point x="429" y="25"/>
      <point x="404" y="0"/>
      <point x="359" y="0" type="curve" smooth="yes"/>
      <point x="124" y="0" type="line" smooth="yes"/>
      <point x="80" y="0"/>
      <point x="56" y="25"/>
      <point x="56" y="70" type="curve" smooth="yes"/>
      <point x="56" y="291" type="line"/>
      <point x="5" y="291" type="line"/>
      <point x="5" y="363" type="line"/>
      <point x="56" y="363" type="line"/>
      <point x="56" y="413" type="line"/>
      <point x="5" y="413" type="line"/>
      <point x="5" y="484" type="line"/>
      <point x="56" y="484" type="line"/>
      <point x="56" y="694" type="line" smooth="yes"/>
      <point x="56" y="739"/>
      <point x="80" y="764"/>
      <point x="124" y="764" type="curve" smooth="yes"/>
      <point x="359" y="764" type="line" smooth="yes"/>
      <point x="404" y="764"/>
      <point x="429" y="739"/>
      <point x="429" y="694" type="curve" smooth="yes"/>
      <point x="429" y="528" type="line"/>
      <point x="315" y="528" type="line"/>
      <point x="315" y="666" type="line"/>
      <point x="170" y="666" type="line"/>
      <point x="170" y="484" type="line"/>
      <point x="327" y="484" type="line"/>
      <point x="327" y="413" type="line"/>
    </contour>
  </outline>
</glyph>
<glyph name="uni2117" format="2">
  <advance width="583"/>
  <unicode hex="2117"/>
  <outline>
    <contour>
      <point x="538" y="44" type="line" smooth="yes"/>
      <point x="538" y="16"/>
      <point x="522" y="0"/>
      <point x="494" y="0" type="curve" smooth="yes"/>
      <point x="89" y="0" type="line" smooth="yes"/>
      <point x="60" y="0"/>
      <point x="45" y="16"/>
      <point x="45" y="44" type="curve" smooth="yes"/>
      <point x="45" y="720" type="line" smooth="yes"/>
      <point x="45" y="748"/>
      <point x="60" y="764"/>
      <point x="89" y="764" type="curve" smooth="yes"/>
      <point x="494" y="764" type="line" smooth="yes"/>
      <point x="522" y="764"/>
      <point x="538" y="748"/>
      <point x="538" y="720" type="curve" smooth="yes"/>
    </contour>
    <contour>
      <point x="486" y="50" type="line"/>
      <point x="486" y="714" type="line"/>
      <point x="97" y="714" type="line"/>
      <point x="97" y="50" type="line"/>
    </contour>
    <contour>
      <point x="404" y="366" type="line" smooth="yes"/>
      <point x="404" y="338"/>
      <point x="387" y="320"/>
      <point x="358" y="320" type="curve" smooth="yes"/>
      <point x="258" y="320" type="line"/>
      <point x="258" y="168" type="line"/>
      <point x="178" y="168" type="line"/>
      <point x="178" y="598" type="line"/>
      <point x="358" y="598" type="line" smooth="yes"/>
      <point x="387" y="598"/>
      <point x="404" y="581"/>
      <point x="404" y="552" type="curve" smooth="yes"/>
    </contour>
    <contour>
      <point x="325" y="386" type="line"/>
      <point x="325" y="532" type="line"/>
      <point x="258" y="532" type="line"/>
      <point x="258" y="386" type="line"/>
    </contour>
  </outline>
</glyph>
<glyph name="apple" format="2">
  <advance width="468"/>
  <unicode hex="F8FF"/>
  <outline>
    <contour>
      <point x="424" y="57" type="line" smooth="yes"/>
      <point x="424" y="21"/>
      <point x="402" y="0"/>
      <point x="365" y="0" type="curve" smooth="yes"/>
      <point x="104" y="0" type="line" smooth="yes"/>
      <point x="66" y="0"/>
      <point x="45" y="21"/>
      <point x="45" y="57" type="curve" smooth="yes"/>
      <point x="45" y="707" type="line" smooth="yes"/>
      <point x="45" y="743"/>
      <point x="66" y="764"/>
      <point x="104" y="764" type="curve" smooth="yes"/>
      <point x="365" y="764" type="line" smooth="yes"/>
      <point x="402" y="764"/>
      <point x="424" y="743"/>
      <point x="424" y="707" type="curve" smooth="yes"/>
    </contour>
    <contour>
      <point x="331" y="582" type="line"/>
      <point x="331" y="680" type="line"/>
      <point x="136" y="680" type="line"/>
      <point x="136" y="582" type="line"/>
    </contour>
    <contour>
      <point x="331" y="416" type="line"/>
      <point x="331" y="513" type="line"/>
      <point x="136" y="513" type="line"/>
      <point x="136" y="416" type="line"/>
    </contour>
    <contour>
      <point x="331" y="250" type="line"/>
      <point x="331" y="348" type="line"/>
      <point x="136" y="348" type="line"/>
      <point x="136" y="250" type="line"/>
    </contour>
    <contour>
      <point x="331" y="84" type="line"/>
      <point x="331" y="181" type="line"/>
      <point x="136" y="181" type="line"/>
      <point x="136" y="84" type="line"/>
    </contour>
  </outline>
</glyph>
<glyph name="A.salt" format="2">
  <advance width="465"/>
  <anchor x="232.5" y="764" name="top"/>
  <anchor x="351" y="0" name="ogonek"/>
  <outline>
    <contour>
      <point x="420" y="0" type="line"/>
      <point x="306" y="0" type="line"/>
      <point x="306" y="305" type="line"/>
      <point x="160" y="305" type="line"/>
      <point x="160" y="0" type="line"/>
      <point x="46" y="0" type="line"/>
      <point x="46" y="694" type="line" smooth="yes"/>
      <point x="46" y="739"/>
      <point x="70" y="764"/>
      <point x="115" y="764" type="curve" smooth="yes"/>
      <point x="350" y="764" type="line" smooth="yes"/>
      <point x="395" y="764"/>
      <point x="420" y="739"/>
      <point x="420" y="694" type="curve" smooth="yes"/>
    </contour>
    <contour>
      <point x="306" y="402" type="line"/>
      <point x="306" y="666" type="line"/>
      <point x="160" y="666" type="line"/>
      <point x="160" y="402" type="line"/>
    </contour>
  </outline>
</glyph>
<glyph name="Aogonek" format="2">
  <advance width="451"/>
  <outline>
    <contour>
      <point x="467" y="-189" type="line"/>
      <point x="300" y="-189" type="line" smooth="yes"/>
      <point x="269" y="-189"/>
      <point x="253" y="-174"/>
      <point x="253" y="-142" type="curve" smooth="yes"/>
      <point x="253" y="-88" type="line" smooth="yes"/>
      <point x="253" y="-62"/>
      <point x="258" y="-50"/>
      <point x="275" y="-35" type="curve" smooth="yes"/>
      <point x="332" y="14" type="line"/>
      <point x="433" y="2" type="line"/>
      <point x="433" y="0" type="line"/>
      <point x="338" y="-81" type="line"/>
      <point x="338" y="-124" type="line"/>
      <point x="467" y="-124" type="line"/>
    </contour>
    <component base="A"/>
  </outline>
</glyph>
<glyph name="M.salt" format="2">
  <advance width="633"/>
  <outline>
    <contour>
      <point x="587" y="0" type="line"/>
      <point x="476" y="0" type="line"/>
      <point x="476" y="590" type="line"/>
      <point x="371" y="460" type="line"/>
      <point x="371" y="0" type="line"/>
      <point x="262" y="0" type="line"/>
      <point x="262" y="460" type="line"/>
      <point x="157" y="590" type="line"/>
      <point x="157" y="0" type="line"/>
      <point x="46" y="0" type="line"/>
      <point x="46" y="764" type="line"/>
      <point x="159" y="764" type="line"/>
      <point x="316" y="562" type="line"/>
      <point x="317" y="562" type="line"/>
      <point x="474" y="764" type="line"/>
      <point x="587" y="764" type="line"/>
    </contour>
  </outline>
</glyph>
<glyph name="Uogonek" format="2">
  <advance width="474"/>
  <outline>
    <contour>
      <point x="436" y="-189" type="line"/>
      <point x="269" y="-189" type="line" smooth="yes"/>
      <point x="238" y="-189"/>
      <point x="222" y="-174"/>
      <point x="222" y="-142" type="curve" smooth="yes"/>
      <point x="222" y="-90" type="line" smooth="yes"/>
      <point x="222" y="-64"/>
      <point x="228" y="-55"/>
      <point x="244" y="-40" type="curve" smooth="yes"/>
      <point x="312" y="25" type="line"/>
      <point x="411" y="25" type="line"/>
      <point x="411" y="20" type="line"/>
      <point x="307" y="-81" type="line"/>
      <point x="307" y="-124" type="line"/>
      <point x="436" y="-124" type="line"/>
    </contour>
    <component base="U"/>
  </outline>
</glyph>
<glyph name="caroncmb.vert" format="2">
  <anchor x="-23.0" y="540.0" name="_caron.vert"/>
  <outline>
    <contour>
      <point x="67" y="764" type="line"/>
      <point x="7" y="528" type="line"/>
      <point x="-67" y="528" type="line"/>
      <point x="-50" y="764" type="line"/>
    </contour>
  </outline>
</glyph>
<glyph name="eogonek" format="2">
  <advance width="400"/>
  <outline>
    <contour>
      <point x="358" y="-189" type="line"/>
      <point x="191" y="-189" type="line" smooth="yes"/>
      <point x="160" y="-189"/>
      <point x="144" y="-174"/>
      <point x="144" y="-142" type="curve" smooth="yes"/>
      <point x="144" y="-88" type="line" smooth="yes"/>
      <point x="144" y="-62"/>
      <point x="149" y="-50"/>
      <point x="166" y="-35" type="curve" smooth="yes"/>
      <point x="223" y="14" type="line"/>
      <point x="332" y="12" type="line"/>
      <point x="332" y="7" type="line"/>
      <point x="229" y="-81" type="line"/>
      <point x="229" y="-124" type="line"/>
      <point x="358" y="-124" type="line"/>
    </contour>
    <component base="e"/>
  </outline>
</glyph>
<glyph name="kgreenlandic" format="2">
  <advance width="377"/>
  <outline>
    <contour>
      <point x="369" y="0" type="line"/>
      <point x="250" y="0" type="line"/>
      <point x="152" y="226" type="line"/>
      <point x="152" y="0" type="line"/>
      <point x="40" y="0" type="line"/>
      <point x="40" y="493" type="line"/>
      <point x="152" y="493" type="line"/>
      <point x="152" y="305" type="line"/>
      <point x="240" y="493" type="line"/>
      <point x="357" y="493" type="line"/>
      <point x="357" y="491" type="line"/>
      <point x="243" y="267" type="line"/>
      <point x="369" y="2" type="line"/>
    </contour>
  </outline>
</glyph>
